<svg xmlns="http://www.w3.org/2000/svg" viewBox="0 0 23.99 24"><defs><style>.cls-1{fill:#999;}</style></defs><title>bagidelosvgAsset 27</title><g id="Layer_2" data-name="Layer 2"><g id="Layer_1-2" data-name="Layer 1"><path class="cls-1" d="M16.49,0a1.5,1.5,0,0,0-1.06.44L2.68,13.19a1.5,1.5,0,0,0-.37.67L.05,22.11a1.5,1.5,0,0,0,1.84,1.84l8.25-2.25a1.5,1.5,0,0,0,.67-.37L23.56,8.57A1.5,1.5,0,0,0,24,7.5,7.5,7.5,0,0,0,16.49,0ZM5.73,19.79A3,3,0,0,0,4.2,18.26L5.08,15a4.5,4.5,0,0,1,3.87,3.87Z"/></g></g></svg>