<svg xmlns="http://www.w3.org/2000/svg" viewBox="0 0 97.6 26.18"><defs><style>.cls-1{fill:#444;}</style></defs><title>bagidelosvgAsset 18</title><g id="Layer_2" data-name="Layer 2"><g id="Layer_1-2" data-name="Layer 1"><path class="cls-1" d="M13.29,15.26c0,2.37-1.2,5.59-7.25,5.59H0V2.63H6.53c3.22,0,5.88,1.07,5.88,4.73a4,4,0,0,1-2.65,3.85v.1A3.78,3.78,0,0,1,13.29,15.26ZM6.06,5.9H3.93v4h2c1.92,0,2.68-1,2.68-2S7.93,5.9,6.06,5.9Zm3.2,9.49c0-1.59-1.33-2.18-2.81-2.18H3.93v4.37H6.66C8.66,17.58,9.26,16.43,9.26,15.39Z"/><path class="cls-1" d="M26,10.76v5.88c0,.83.31,1.2,1,1.2h.42v2.7a3.58,3.58,0,0,1-1.95.49,2.72,2.72,0,0,1-2.65-1.59h-.1A4.38,4.38,0,0,1,19,21.09,4,4,0,0,1,14.62,17c0-3.38,3-4.94,7.67-4.71V11.18A1.87,1.87,0,0,0,20.18,9a2.58,2.58,0,0,0-2.52,1.66L14.88,8.66A6.08,6.08,0,0,1,20.15,5.9C23.9,5.9,26,7.2,26,10.76ZM22.29,15c-2.57-.18-3.85.42-3.85,1.69A1.41,1.41,0,0,0,20,18.1a2.85,2.85,0,0,0,2.26-1Z"/><path class="cls-1" d="M40.44,20.2c0,4-2.81,6-6.73,6-3.61,0-5.07-1-5.9-2L30,21.29A4.61,4.61,0,0,0,33.7,23c2,0,2.89-.75,2.89-2.83v-.75h-.1a4.39,4.39,0,0,1-2.89.83c-3,0-5.77-1.51-5.77-6.79C27.83,9.33,30.17,6,35,6a13.09,13.09,0,0,1,5.46.88ZM35,9.07c-2.05,0-3.22,1.43-3.22,4.24,0,3,1,3.77,2.78,3.77a2.81,2.81,0,0,0,2.05-.75v-7A4.68,4.68,0,0,0,35,9.07Z"/><path class="cls-1" d="M44.94,0a2.26,2.26,0,0,1,2.31,2.34,2.28,2.28,0,0,1-4.55,0A2.24,2.24,0,0,1,44.94,0ZM43,6.16H47V20.85H43Z"/><path class="cls-1" d="M57.63,1.14h3.9V20.85H58.46l-.62-1.2h-.1a5,5,0,0,1-3.59,1.43c-3.09,0-5.36-2-5.36-6.81,0-6.19,3.33-8.19,6.42-8.19a7.54,7.54,0,0,1,2.42.31Zm.1,15.6v-7a3.69,3.69,0,0,0-1.95-.52c-1.61,0-3,.7-3,4.68,0,2.86,1,4.06,2.55,4.06A2.85,2.85,0,0,0,57.73,16.74Z"/><path class="cls-1" d="M75.63,19.5a7.69,7.69,0,0,1-5.38,1.64c-4.63,0-7-2.6-7-7.67,0-4.76,2.65-7.59,6.89-7.59,3.74,0,5.9,2.37,5.9,6a17.83,17.83,0,0,1-.18,2.63H67.1c.05,2.31,1.09,3.59,3.59,3.59a4.45,4.45,0,0,0,3.22-1.33Zm-8.45-7.64h5.17v-.39c0-1.72-.73-2.63-2.31-2.63A2.83,2.83,0,0,0,67.17,11.86Z"/><path class="cls-1" d="M81.76,1.14V16.22c0,1.09.49,1.46,1.22,1.46a2.37,2.37,0,0,0,.55-.05v3.09a4.76,4.76,0,0,1-1.87.36,3.51,3.51,0,0,1-3.82-3.85V1.14Z"/><path class="cls-1" d="M84.18,13.57c0-4.52,1.9-7.67,6.76-7.67,5.07,0,6.66,3,6.66,7.57s-1.92,7.67-6.79,7.67C85.77,21.14,84.18,18.12,84.18,13.57Zm6.76,4.5c2,0,2.63-1.46,2.63-4.45S92.82,9,90.79,9c-1.79,0-2.57,1.46-2.57,4.45S89,18.07,90.94,18.07Z"/></g></g></svg>