<svg xmlns="http://www.w3.org/2000/svg" viewBox="0 0 24 24"><defs><style>.cls-1{fill:#999;}</style></defs><title>bagidelosvgAsset 20</title><g id="Layer_2" data-name="Layer 2"><g id="Layer_1-2" data-name="Layer 1"><path class="cls-1" d="M22.88,9h-1.6a9.7,9.7,0,0,0-.6-1.44l1.13-1.13a1.12,1.12,0,0,0,0-1.59L19.16,2.19a1.12,1.12,0,0,0-1.59,0L16.44,3.32A9.75,9.75,0,0,0,15,2.72V1.13A1.13,1.13,0,0,0,13.88,0H10.13A1.13,1.13,0,0,0,9,1.13v1.6a9.75,9.75,0,0,0-1.44.6L6.43,2.19a1.12,1.12,0,0,0-1.59,0L2.19,4.84a1.12,1.12,0,0,0,0,1.59L3.32,7.56A9.7,9.7,0,0,0,2.72,9H1.13A1.12,1.12,0,0,0,0,10.13v3.75A1.12,1.12,0,0,0,1.13,15h1.6a9.7,9.7,0,0,0,.6,1.44L2.19,17.57a1.12,1.12,0,0,0,0,1.59l2.65,2.65a1.12,1.12,0,0,0,1.59,0l1.13-1.13a9.75,9.75,0,0,0,1.44.6v1.6A1.13,1.13,0,0,0,10.13,24h3.75A1.13,1.13,0,0,0,15,22.88v-1.6a9.75,9.75,0,0,0,1.44-.6l1.13,1.13a1.12,1.12,0,0,0,1.59,0l2.65-2.65a1.12,1.12,0,0,0,0-1.59l-1.13-1.13a9.7,9.7,0,0,0,.6-1.44h1.6A1.13,1.13,0,0,0,24,13.88V10.13A1.13,1.13,0,0,0,22.88,9ZM12,17.63A5.63,5.63,0,1,1,17.63,12,5.63,5.63,0,0,1,12,17.63Z"/></g></g></svg>