<svg xmlns="http://www.w3.org/2000/svg" viewBox="0 0 22.01 24"><defs><style>.cls-1{fill:#999;}</style></defs><title>bagidelosvgAsset 28</title><g id="Layer_2" data-name="Layer 2"><g id="Layer_1-2" data-name="Layer 1"><path class="cls-1" d="M.7,18.61a2.38,2.38,0,0,0,1.71.72H19.59a2.38,2.38,0,0,0,1.71-.72,2.41,2.41,0,0,0-.09-3.49l-.78-.69a2.41,2.41,0,0,1-.78-1.78V8.85C19.65,4.8,16.54,0,11.24,0h-.47C5.47,0,2.35,4.77,2.35,8.85v3.8a2.36,2.36,0,0,1-.78,1.78l-.78.69A2.41,2.41,0,0,0,.7,18.61Z"/><path class="cls-1" d="M11,24a3.27,3.27,0,0,0,3.27-3.27H7.72A3.27,3.27,0,0,0,11,24Z"/></g></g></svg>