<svg xmlns="http://www.w3.org/2000/svg" viewBox="0 0 24 24"><defs><style>.cls-1{fill:#999;}</style></defs><title>bagidelosvgAsset 33</title><g id="Layer_2" data-name="Layer 2"><g id="Layer_1-2" data-name="Layer 1"><path class="cls-1" d="M15.43,8.79s0,0,0,0h0Z"/><circle class="cls-1" cx="12" cy="12" r="2.17"/><path class="cls-1" d="M12,0A12,12,0,1,0,24,12,12,12,0,0,0,12,0Zm6.25,15.09a3.16,3.16,0,0,1-3.16,3.16H8.91a3.16,3.16,0,0,1-3.16-3.16V8.91A3.16,3.16,0,0,1,8.91,5.75h6.18a3.16,3.16,0,0,1,3.16,3.16Z"/><path class="cls-1" d="M15.09,6.73H8.91A2.18,2.18,0,0,0,6.73,8.91v6.18a2.18,2.18,0,0,0,2.18,2.18h6.18a2.18,2.18,0,0,0,2.18-2.18V8.91A2.18,2.18,0,0,0,15.09,6.73ZM12,15.15A3.15,3.15,0,1,1,15.15,12,3.16,3.16,0,0,1,12,15.15Zm3.44-5.53a.83.83,0,1,1,.83-.83A.83.83,0,0,1,15.44,9.62Z"/></g></g></svg>