<svg xmlns="http://www.w3.org/2000/svg" viewBox="0 0 24 24"><defs><style>.cls-1{fill:#999;}</style></defs><title>bagidelosvgAsset 31</title><g id="Layer_2" data-name="Layer 2"><g id="Layer_1-2" data-name="Layer 1"><path class="cls-1" d="M24,12A12,12,0,1,0,12,24,12,12,0,0,0,24,12ZM5.54,16.26a5,5,0,0,0,.63,0,5.12,5.12,0,0,0,3.29-1.2,2.69,2.69,0,0,1-2.48-2,2.48,2.48,0,0,0,1.2,0A2.82,2.82,0,0,1,6.06,10.3v0a2.54,2.54,0,0,0,1.2.37,3,3,0,0,1-.82-3.79,7.48,7.48,0,0,0,5.46,3,3,3,0,0,1-.07-.64,2.68,2.68,0,0,1,2.65-2.76,2.64,2.64,0,0,1,1.94.91,5.07,5.07,0,0,0,1.68-.65,2.72,2.72,0,0,1-1.17,1.52,5.05,5.05,0,0,0,1.52-.42,5.45,5.45,0,0,1-1.32,1.42c0,.12,0,.24,0,.36,0,3.68-2.67,7.93-7.54,7.92A7.14,7.14,0,0,1,5.54,16.26Z"/></g></g></svg>