<svg xmlns="http://www.w3.org/2000/svg" viewBox="0 0 24 24"><defs><style>.cls-1{fill:#999;}</style></defs><title>bagidelosvgAsset 32</title><g id="Layer_2" data-name="Layer 2"><g id="Layer_1-2" data-name="Layer 1"><path class="cls-1" d="M16.37,13.17c.13.53-1.33.36-1.69.86s-1.24.16-1.44.07-1,.22-.91-.32.54-.57,1-.8,1.24-1,.88-1.06a3.54,3.54,0,0,1-2.27-2c-.1,0-.08-1.13-.52-1.16a6,6,0,0,1-1.32,0c-.64-.13-.51-.54-.61-1.43s.27-.6.47-.89l.06-.07A6,6,0,0,0,6,12H6c.44,0,1.24.12,1.27.42s0,.93.36,1.09.47-.62.78-.41,1.14.41,1.14.77-.16.94,0,1a4.13,4.13,0,0,1,.78.93c0,.1.22.63.15.83a2.85,2.85,0,0,1-.59.92,6,6,0,0,0,7.43-8.33,4.2,4.2,0,0,0,.15,1.35C18.07,11.42,16.06,12,16.37,13.17Z"/><path class="cls-1" d="M12,0A12,12,0,1,0,24,12,12,12,0,0,0,12,0Zm0,19.24A7.24,7.24,0,1,1,19.24,12,7.25,7.25,0,0,1,12,19.24Z"/></g></g></svg>