<svg id="Layer_1" data-name="Layer 1" xmlns="http://www.w3.org/2000/svg" viewBox="0 0 600 800"><defs><style>.cls-1{fill:#1a1a1a;}.cls-2{fill:#789962;}.cls-3{fill:#8caf77;}.cls-4{fill:#8fb27b;}.cls-5{fill:#b0db9a;}.cls-6{fill:#42632f;}.cls-7{fill:#e6e6e6;}.cls-8{fill:#fff;}.cls-9{fill:#604026;}</style></defs><title>frank</title><path class="cls-1" d="M491.6,603.65a48,48,0,0,0,15.88,2.7,44.92,44.92,0,0,0,41.09-25.66c12.7-26.81,6-64.46,1.11-91.94l-1-5.91a426.63,426.63,0,0,0-31.29-100.78C504.9,354.27,489.28,323,467.1,298.73c25.57-24.91,33.75-57.92,21.26-87.5-5.07-12-15.89-24.83-31.07-24.83a27.35,27.35,0,0,0-4.28.34,26.85,26.85,0,0,0-3.37.76q-.7-14.55-1.46-29.1a10.84,10.84,0,0,0,2.76-4.54c1.89-6.18,4-12.33,6.17-18.85,5.72-16.92,11.64-34.42,13.89-52.1,2.43-19.05-3.37-35.56-15.91-45.3-13-10.1-32.25-13.82-47.72-16.81l-5.11-1A176.18,176.18,0,0,0,367.78,16,114.14,114.14,0,0,0,346,18h-3.17c-18.59,0-36.43,1-57.82,2.28l-8.6.51c-28.35,1.66-57.66,3.38-85.16,10.42C168,37.18,152.19,53.1,146.74,76c-6.87,28.88,5.27,57.12,15,79.81a10.74,10.74,0,0,0,5.58,5.77c-.57,8.11-1,16.26-1.42,24.39l-.69-.16a27.39,27.39,0,0,0-5.7-.6c-18.74,0-30.85,18.4-34.12,24-9.47,16.34-8.6,35.85,2.52,56.41,5.78,10.7,12.67,22.4,21,31.1A272,272,0,0,0,108,341.12l-1.46,0s-1.65,4.2-1.69,4.31c-29.19,41-49.24,91.8-56.51,143.13C43.2,525.07,40,566.39,55.51,596.26c6.67,12.86,25.64,26.62,43.24,26.62a29.12,29.12,0,0,0,9.94-1.67,869.43,869.43,0,0,0,12.52,123.58C104,746,69.88,753,61.53,767.57a15.23,15.23,0,0,0,.31,15.85c5.93,10.06,20.21,10.06,24.91,10.06,4.44,0,8.78-.36,12.6-.68,2.68-.22,5-.41,6.64-.42,21.93-.07,45.2-.3,73.22-.74a11.48,11.48,0,0,0,11.29-11.22c.14-5-.22-20.3-8.79-30.32a135.07,135.07,0,0,0,7.26-14c1.83-3.9,3.56-7.59,5.48-10.9a274.1,274.1,0,0,1,27.91-39.46c21.66-25.44,41.51-42.39,68-42.39a63,63,0,0,1,6.32.32c31.91,3.27,58.81,26.59,80.42,45.32a391.37,391.37,0,0,1,32,30.38c4.87,5.29,9.14,11,13.67,17,1.92,2.56,3.89,5.17,5.91,7.76-6,6.39-10,16.47-9.26,25.13.64,7.51,4.8,13.07,11.41,15.26a20,20,0,0,0,6.33.9A67.55,67.55,0,0,0,448.81,784c2.1-.38,4.08-.74,5.54-.87,8.77-.78,17.59-1.36,26.21-1.74,8.07-.35,16.4-.54,24.75-.54,11.76,0,24.07.36,36.55,1.06l.55,0a11.27,11.27,0,0,0,8.24-3.86,10.35,10.35,0,0,0,2.67-8c-2.76-23.26-30.21-33.67-56.19-33.67-3.07,0-6.12.15-9.06.44l.32-8.5C489.91,687.61,491.48,645.64,491.6,603.65Z"/><path class="cls-2" d="M231.52,291.34c-8.78-14.56-32.33-22.89-47.64-12.12-47,33.09-76,78.62-98,130-10.22,23.92-20.41,48.82-26,74.21-6.87,31.46-4.68,62.21-.5,93.82,2.39,18.1,14.29,33.79,34.82,33.79,17,0,37.23-15.56,34.82-33.79-3.14-23.76-7.05-48.73-2.65-72.55,4.15-22.49,13.16-44.56,21.72-65.76,15.22-37.67,36.4-77.12,70.91-101.41C234.23,326.87,241.68,308.19,231.52,291.34Z"/><path class="cls-2" d="M513.88,403.75c-18.89-48.48-45.21-102.7-90.21-133-36.89-24.87-71.74,33.68-35.15,58.35,16.27,11,26.78,31.27,36.22,47.64a342.76,342.76,0,0,1,26.79,58,366,366,0,0,1,20.55,126.59c-.53,43.5,69.1,43.52,69.64,0C542.38,507.8,533.4,453.84,513.88,403.75Z"/><path class="cls-3" d="M183.91,279.77c-63.12,166.8-83.29,236.09-53.36,472.17H170S217.53,627,300.6,632.25,444.8,746.72,444.8,746.72h33.31c13.7-156,3.08-334.29-52.92-440.43Z"/><path class="cls-4" d="M214.32,228.73c18.08,27,16.36,59.23-3.84,72s-51.23,1.15-69.31-25.87-16.36-59.23,3.84-72S196.24,201.71,214.32,228.73Z"/><path class="cls-4" d="M396.15,228.73c-18.08,27-16.36,59.23,3.84,72s51.23,1.15,69.31-25.87,16.36-59.23-3.84-72S414.22,201.71,396.15,228.73Z"/><path class="cls-5" d="M436.37,75.5c-1.78-28-250.81-9-250.81-9C170,189.35,176.2,342.21,179.77,404.61c.94,16.47,14.21,29.73,31.15,31.16,63.11,5.3,207.15,15.32,218.75-2.63C444.56,410.09,438.14,103.55,436.37,75.5Z"/><path class="cls-6" d="M322.58,30.47c-123.35,3.6-161.82,10.82-168.29,51.08s15,67.66,15,67.66,41.65-12.39,50.24-28v24.45s60.52-3.51,69.4-22v13.52s48.78-12,55.66-29.29c7.92,18.28,40.32,33,40.32,33L387,116.52s24.23,26.26,54.18,36c3.11-25.86,38.91-86.56,8.78-106.83S373.13,29,322.58,30.47Z"/><path class="cls-7" d="M369.18,275.93c21.08,0,38.17-16.58,38.17-37H331C331,259.35,348.1,275.93,369.18,275.93Z"/><path class="cls-7" d="M249.43,273.92c17.58,0,31.82-16.58,31.82-37H217.6C217.6,257.34,231.85,273.92,249.43,273.92Z"/><path class="cls-6" d="M318.92,218.76s-5.16,23.55,0,28.55,89.13,2.51,96.69,0,0-32.59,0-32.59Z"/><path class="cls-6" d="M291.13,218.56s4.74,22.72-1.49,23.75-67.42,5.66-78.35-3.13-1.57-28.41-1.57-28.41S272.29,220.69,291.13,218.56Z"/><polygon class="cls-8" points="359.44 357.48 353.5 386.54 391.8 387.69 395.26 365.98 359.44 357.48"/><path class="cls-8" d="M278.75,352.91l-2.53,16,38.3,1.48,2.06-16.67C309,353.53,290.28,353.15,278.75,352.91Z"/><path class="cls-6" d="M413,370c-60.35-21.58-125.32-21.89-188.55-15.57-2.6.26-2.62,4.24,0,4,62.89-6.29,127.42-6,187.46,15.43C414.41,374.75,415.47,370.9,413,370Z"/><path class="cls-9" d="M121.64,670.46h98.67c20.88-22.45,47.87-40.25,80.29-38.21,31,2,58.92,18.38,81.77,38.21H482.72c1.1-32.92,1-66.13-.37-98.83H117C116.83,601.07,118.38,633.44,121.64,670.46Z"/><path class="cls-3" d="M130.55,751.94s-61.93.15-60.38,25.19H179.58s4-7.81-9.59-25.19S130.55,751.94,130.55,751.94Z"/><path class="cls-3" d="M478.08,746.34s61.93.15,60.38,25.19H429.06s-4-7.81,9.59-25.19S478.08,746.34,478.08,746.34Z"/><path class="cls-1" d="M319,214.15a3,3,0,0,0-2.66,1.88,1.75,1.75,0,0,0-.35.85c-1.4,10.34-1.21,20.32-.41,30.74a3.32,3.32,0,0,0,2.34,3.08,82.93,82.93,0,0,0,12.75,2.74c13.19,36.73,63.13,30.12,75.88-3.24,8.12-.62,14.27-3,15-14,.38-5.48,1.16-18.47-3.72-22.54-4.33-3.61-12.66-2.24-17.78-2-13.71.56-27.29,3-41,3.88S332.44,213.86,319,214.15Zm10.45,33.62a11.53,11.53,0,0,1-4.34-1.66,160.6,160.6,0,0,1,3.57-20.45l.88,16.49C329.62,243.56,329.39,245.71,329.43,247.77Zm-4.33-12.16c.18-4.15.47-8.3.84-12.44.58.17,1.15.33,1.74.47C326.68,227.61,325.8,231.6,325.1,235.61Zm-5-14.58a40.9,40.9,0,0,0,4.83,1.84,200.3,200.3,0,0,0-1.49,21.57C319.07,239.06,320,228.55,320.08,221Zm16.65,33.06c18,1.38,36.52-1.71,54.35-3.28,2.31-.2,4.61-.27,6.87-.32C385.95,278,353.18,275.84,336.73,254.09Zm74.54-14.84a12.94,12.94,0,0,1-3.27,2.19c1.32-7.38-.17-14.72-1.64-21.95C413.46,223.44,417.18,233.58,411.26,239.25Zm-20-18.31c3-.37,11.76-3.18,14.64-1.71l.32.18c1.65,7.26.93,14.58.87,22a.39.39,0,0,0,.17.32c-6.34,2.76-15.17,2-21.86,2.62-9.38.86-18.77,1.85-28.16,2.57-5.31.4-17.94,2.23-26.23,1.1,0-2,.08-4.21.06-4.61l-.4-7.55-.62-11.7c11.33,2.25,23.86,1,34.86-.09C373.73,223.22,382.5,222,391.28,220.94Z"/><path class="cls-1" d="M252.31,276.94c14.39-.58,31.22-14.26,30.57-29.59,1.52-.17,3-.39,4.46-.67,14.46-2.84,8.24-14.46,5.69-25.76a2.18,2.18,0,0,0-1.09-1.46l.14-.65a3,3,0,0,0-1.35-3.31c-7.94-4.23-21.19-.7-29.91-.39-16.84.6-33.66.42-49.15-7.06-2.11-1-4.92-.27-5.54,2.25-2.79,11.29-3,21.65.34,32.84a5.46,5.46,0,0,0,5.15,3.92h4C219.64,263.95,234.1,277.68,252.31,276.94Zm-32.23-40.56c-.5-6.1-1.26-12.17-1.67-18.28,1.65.47,3.32.89,5,1.28.32,5.59.38,11.43,1.19,17Zm53.89,17c-3.81,9.19-11.22,16.18-21.66,16.75-15.49.85-25.87-10.24-32.05-23l29.22,0c8.21,0,17.74.88,26.7.65C275.45,249.41,274.86,251.2,274,253.35Zm13.46-32.78a2.37,2.37,0,0,0,.64.63,2,2,0,0,0,0,.4q.56,5.06.77,10.14.48,8.13-7.28,5.08c-6.53,1.78-16.49-.3-23.3-.36-10.59-.09-21.18-.08-31.77-.07-.29-5.59-1.39-11.29-2.19-16.81a109.92,109.92,0,0,0,20.69,2.58C250.08,222.3,285.44,217.56,287.44,220.57Zm-74.52-4.12c1.33.46,2.67.81,4,1.21a131,131,0,0,0,1.44,18.73h-2.94A50.38,50.38,0,0,1,212.91,216.45Z"/><path class="cls-1" d="M221.24,358.44a1.82,1.82,0,0,0,.48,3.56c17.36.72,34.71-.13,52.09-.64h0c-2.44,4.68-1.65,9.54-.07,14.49a3.17,3.17,0,0,0,3,2.28c6.06-.24,12-1.11,18.1-.87,5.56.22,11.82,2.75,17.25,2,7.61-1,7.38-10.78,7.18-17.14q18.86,1.54,37.42,4.52c-2.45,3.47-3.2,9.05-4.29,13-.92,3.34-2.32,8.17.7,11,3.52,3.26,11.77,2.23,16.13,2.51,7.85.5,15.71.82,23.57,1.24a4.5,4.5,0,0,0,4.32-3.29c.47-2.48.85-5,1.21-7.46l2-.07c1.19,0,1.2-1.9,0-1.86l-1.77.07c.29-2.16.51-4.34.71-6.52q5.59,1.37,11.17,2.85c7,1.85,9.88-8.81,3-10.76a440.82,440.82,0,0,0-95.94-16.24C286.3,349.44,251.29,348.66,221.24,358.44Zm55.38,3c0-.09-.11-.13-.15-.21,12-.32,24-.4,36.08.36-.39,2.06-.66,4.14-1,6.22a149.9,149.9,0,0,0-33.21,2.29C277.64,367.29,277.35,364.42,276.61,361.48Zm2,9.64,1.45-.11c-.47.1-.94.17-1.41.29C278.64,371.25,278.63,371.19,278.61,371.13ZM296.4,370c4.93-.21,9.88-.3,14.86-.32-.11.62-.22,1.24-.36,1.85C307,371.83,300.77,370.52,296.4,370Zm62.78,14.86h.55a1.19,1.19,0,0,0-.57.36C359.15,385.07,359.16,384.93,359.17,384.82Zm29.83.37c-3.31-.25-6.69-.59-10.07-.87,3.42-.1,6.83-.24,10.25-.35C389.12,384.38,389.07,384.79,389,385.19Zm1.44-11.47c-.23,2.84-.59,5.65-1,8.45q-15,.62-30.09,1.42c.41-1.93,1.32-4.65,1.52-5.48a23.31,23.31,0,0,0,.56-10,2,2,0,0,0-.26-.69q14.75,2.5,29.37,5.85C390.52,373.4,390.46,373.55,390.44,373.73Z"/><path class="cls-1" d="M236.17,168.73q15,2.36,30.06,3.93c0,.46.06.92.07,1.37.1,5-.09,9.9-.17,14.86h0c-.12,2.89,4.86,3.59,5.1,0a112.6,112.6,0,0,0-.14-15.77q10.46,1,21,1.62c0,.52,0,1-.05,1.56-.05,4.2-1.06,8.85,2.17,11.93a1.53,1.53,0,0,0,2.15,0c2.84-3.48,1.47-7.63,1.21-11.93,0-.42-.05-.84-.08-1.26q9.57.47,19.19.63c1.95,0,3.89,0,5.84,0,.44,4.07.68,8.74,3.73,11.53a1.69,1.69,0,0,0,2.78-.73c1.21-3.55-.28-7.23-1.26-10.81q9.44,0,18.87-.32a53.76,53.76,0,0,0,4.52,13.09c1.42,2.77,6.23.83,5.1-2.15-1.43-3.78-2.85-7.45-4.15-11.13,2.12-.09,4.24-.11,6.35-.22,4.07-.21,14,.86,16.89-2.89a1.47,1.47,0,0,0-.23-1.78c-3.77-3.53-15.38-.32-19.64,0-1.63.11-3.27.17-4.9.27a79,79,0,0,1-2.81-12c-.25-1.75-3.14-1.33-3.08.42a102.64,102.64,0,0,0,1.08,11.88q-9.45.52-18.9.75c-.93-4.52-1.69-9.06-2.2-13.65-.25-2.2-3.58-2.32-3.52,0,.11,4.61.44,9.19.94,13.77-1.81,0-3.61.12-5.42.13q-9.7.09-19.41-.13c-.27-4.24-.55-8.48-.7-12.73a1.62,1.62,0,0,0-3.23,0c-.47,4.18-.9,8.37-1.14,12.57q-10.63-.3-21.24-.91c-.21-3.44-.48-6.9-2-10-.62-1.29-2.27-.74-2.64.37l-.06,0a32.09,32.09,0,0,0-.19,9.35c-10-.62-19.91-1.37-29.83-2.34C235.84,167.92,235.73,168.66,236.17,168.73Z"/><path class="cls-1" d="M301.78,548.11l-.09,0a5,5,0,0,0-4.86,2.33,3.88,3.88,0,0,0-.59,1.36c-.24.23-.49.46-.72.71-2.32,2.44-.74,6.94,2.83,6.84a5,5,0,0,0,1.46-.15,1,1,0,0,0,.24-.12,3.4,3.4,0,0,0,1.28-.06l.16-.06a3.62,3.62,0,0,0,3-.93c2.06-1.9,2.52-4.78,2.11-7.43C306.27,548.23,303.71,547.59,301.78,548.11Z"/><path class="cls-1" d="M113.32,550.73c-3.1-1.18-7,.48-10.47,2.41-.74-1.65-1.5-3.28-2.18-5-.44-1.08-2.11-.69-1.79.49.52,1.93,1.13,3.83,1.72,5.74-1.4.82-2.7,1.59-3.81,2.11l-4.13,2-3.85-6.24a.69.69,0,0,0-1.18.69L91,559.29,68.07,570.13c-.29.14,0,.54.25.42l21.17-9.07,2.19-.88,1,2c1.32,2.5,2.32,5.64,4.66,7.32a.74.74,0,0,0,1.1-.63c-.26-2.87-2.48-5.33-4-7.73l-1-1.63,7.81-3c.06.17.1.34.15.51.68,2,1.25,4.77,3.3,5.77a.89.89,0,0,0,1.29-.53c.59-2.09-.77-4-1.65-5.91-.14-.29-.26-.6-.39-.89l7.85-3c-.05,1.44,2.24,1.45,2.25,0q0-.48,0-1A1.15,1.15,0,0,0,113.32,550.73Z"/><path class="cls-1" d="M477.65,356.18a.15.15,0,0,0,0,.29A.15.15,0,0,0,477.65,356.18Z"/><path class="cls-1" d="M225.32,520.21c9.39,4.5,17.74.56,27.12-2.95l7.7-2.88c1.36,4.51,2.64,9.28,4.7,13.37a2,2,0,0,0,2.7.71l.42-.25a1.72,1.72,0,0,0,.76-1.88l-.08-.45a1,1,0,0,0-.22-.44c.1-.19.07-.55-.16-1.19a7.44,7.44,0,0,0-1-3.16c-1-2.76-2-5.49-3-8.22q13.39-5,26.79-10l.16-.06c1.31,5.42,2.76,10.79,4.5,16.07,1.6,4.84,8.55,1.43,6.47-2.27-1.48-5.38-3.25-10.69-5.16-15.94q10.33-3.8,20.69-7.45c.81,4.4,1.86,10.83,4.74,13.35,4.43,3.87,11.84-2.2,7.59-6.91a4.75,4.75,0,0,0-4.81-1.23c-.74-2.24-1.74-4.47-2-5.33-.18-.54-.34-1.08-.51-1.62q10.49-3.63,21.05-7c0,.13,0,.26,0,.39.63,4.39.89,9.5,4.9,12a1.48,1.48,0,0,0,2-.53c1.79-4.14-.24-8-1.2-12.24-.1-.45-.18-.9-.27-1.34,8.46-2.65,17-5.18,25.57-7.51,2.5-.68,1.45-4.43-1.07-3.87q-12.77,2.83-25.52,5.87A97,97,0,0,1,347,465a1.81,1.81,0,0,0-3.62,0,97.8,97.8,0,0,0-.21,13.43q-11.39,2.76-22.7,5.78c-1.16-4.06-2.21-8.16-3.06-12.31a1.33,1.33,0,0,0-2.6.35c.3,4.36.73,8.75,1.4,13.08-7.43,2-14.84,4.13-22.19,6.4l-.35.11q-1.42-3.65-2.85-7.29a1.81,1.81,0,0,0-3.49,1q.83,3.91,1.68,7.84c-9.48,3.07-18.82,6.51-28.1,10.15-1-3.1-2.06-6.21-3.17-9.29l.38.27a.54.54,0,0,0,.76-.76l-2.85-4a1.43,1.43,0,0,0-2.61,1.1,121.47,121.47,0,0,0,3.76,14.15l-1.85.73c-10,4-21.16,6.64-30,12.71A1.09,1.09,0,0,0,225.32,520.21Z"/><path class="cls-1" d="M481.53,744.1c1.81-49.17,3.94-99.7,3.81-150.35,20,12.46,47.17,6.25,57.57-15.73,12.72-26.85,4.44-66.1-.45-94.1a419.43,419.43,0,0,0-30.83-99.3c-13.33-29.76-30-62.55-53.47-86.19,24.38-21.06,37.75-53.21,24.43-84.76-4.78-11.33-15-22.91-28.59-20.74a20,20,0,0,0-10.15,4.76q-1-21.29-2.11-42.56A4.68,4.68,0,0,0,445,152c6.93-22.66,16.84-46.32,19.84-69.9,1.86-14.63-1.43-30.15-13.54-39.56C438.06,32.31,416.92,29.12,401,26c-18-3.59-36.4-5.31-54.43-1.67-20.47-.16-41.06,1-61.22,2.26-30.45,1.84-62.88,3.13-92.58,10.74-20.57,5.27-35,19.38-40,40.2-6.27,26.38,4.42,52,14.69,75.89,1.34,3.11,4.26,3.37,6.56,2.09q-1.55,20.07-2.28,40.27a18.79,18.79,0,0,0-7.87-3.75c-14.21-3-26.59,9.22-33.1,20.45-9.45,16.31-6,34.42,2.61,50.28,5.31,9.82,14.16,25.59,25,34.33a264.45,264.45,0,0,0-47.15,50.27l-.17,0c-.31,0-.35.33-.16.5-30,41.68-49.28,91.79-56.35,141.69C50.1,521,45.81,564,61.07,593.37,69.7,610,100.6,626.3,114.7,609.62a859.88,859.88,0,0,0,13.86,140.7,5.61,5.61,0,0,0,.19.65c-16.19-1.23-73,9.79-61.51,29.28,6.31,10.71,29.48,5.91,38.73,5.89q36.58-.11,73.15-.74a5.22,5.22,0,0,0,5.12-5.12C184.52,770.12,182,757,173.49,751c6.52-8.46,10.24-19.9,15.55-29a279.75,279.75,0,0,1,28.55-40.37c20.85-24.49,45.08-47.78,79.73-44.23,32.92,3.37,59.87,26,83.88,46.82a395.91,395.91,0,0,1,32.48,30.87c8.66,9.42,15.63,20.17,23.76,30-10.66,5.68-18,29.08-4.69,33.49,5.54,1.83,15.27-1.18,21-1.69q13.22-1.17,26.49-1.76a616.64,616.64,0,0,1,61.94.53c2.41.14,5.17-2.36,4.88-4.88C544.11,745.62,504.8,739.3,481.53,744.1ZM457,666.73c5.92-.1,10.67.52,12.21,2.6,2.17,2.94-14.32,1.59-17.91,1.53q-10.41-.2-20.82-.13Q443.79,669.37,457,666.73Zm-19.5,1.81h0Zm29.32-3.91c2.48-.57,5-1.15,7.45-1.79,0,1.09,0,2.18-.07,3.28A36.35,36.35,0,0,0,466.85,664.64Zm-263,9.47c-10.07,1.95-20.82,1.46-30.95,3.15-15.65,2.62-29.79,6.48-44.15-.35-.07-.77-.13-1.53-.2-2.3,4.29.85,15.16-.75,18.25-.78,6.61-.07,13.21-.3,19.82-.49C178.75,673,191.82,671.26,203.81,674.1ZM97.23,485a93.34,93.34,0,0,0-13-7.61c-1.75-.8-14.24-4.36-14.29-5-.11-1.57,21.41-1.22,23.07-1.1l1,.08c0,.3,0,.61,0,.91-.16,2.8-1.35,5.78-1.14,8.53a1.51,1.51,0,0,0,3,0c-.23-2.63,1-5.82,1.06-8.53,0-.22,0-.44,0-.66,2.23.22,4.51.53,6.79.92a42.38,42.38,0,0,0-.75,9.07,1.76,1.76,0,0,0,3.52,0c.08-2.87.16-5.67.34-8.46,5.88,1.29,11.55,3.42,16.06,7.09q-1.19,8.25-2.2,16.52A135.38,135.38,0,0,0,97.23,485ZM120,497.93c-3.66,1.69-16.92-9-20.33-11.25l-.49-.33c2.58,1.11,5.13,2.27,7.62,3.53C108.83,490.9,119.44,498.19,120,497.93ZM66.25,473.33A112.57,112.57,0,0,1,88,481.84a165.21,165.21,0,0,0-22.36-5.16C65.84,475.56,66,474.44,66.25,473.33ZM131.9,335.2a95.72,95.72,0,0,0,11,16.73c-5.06-3.84-10.06-7.77-15.07-11.65C129.18,338.58,130.54,336.89,131.9,335.2Zm6.1,4,11.42,9.21a1.44,1.44,0,0,0,1,2l1.2.38c-.46,1.48-.9,3-1.35,4.44A107,107,0,0,1,138,339.2Zm32.47-18.31c0,3.51,0,7-.09,10.54-.36,27.07-.89,55.18,6.19,81.56,4.78,17.81,14.38,25.53,32.32,28.1,60.47,8.66,122.65,6.06,183.48,4,17.58-.61,35.71-1.4,44.07-19.37,10.09-21.67,7.82-52.12,8.86-75.38.11-2.55.16-5.1.25-7.65q3.91,16.52,7.34,33.1l-.4.36c-.42.38.17,1,.6.63a1029.27,1029.27,0,0,1,20.19,157.18c0,.23,0,.47,0,.7q-5.86-2.55-12.06-4.69c.73-2.79,1.55-6.4-.56-8a.59.59,0,0,0-.59,0c-2,.89-2.5,3.94-2.94,6.59-4.84-1.55-9.78-3-14.77-4.27a75.09,75.09,0,0,0,2.14-12.18c.08-.86-1.2-.95-1.44-.2-1.26,3.88-2.52,7.73-3.86,11.53-6.72-1.73-13.47-3.34-20.15-4.94A30,30,0,0,0,420.3,512a.94.94,0,0,0-1.73-.47,30.09,30.09,0,0,0-2.69,6.14c-6.25-1.51-12.41-3-18.33-4.73a.54.54,0,0,0-.29,1c5.82,1.92,11.76,4.08,17.75,6.32-.23.72-.46,1.44-.7,2.13-1.26,3.69-2.77,7.48-3.28,11.35-.2,1.56,2.25,2.1,2.92.79,1.78-3.47,2.66-7.48,3.7-11.22.17-.61.36-1.24.54-1.86,6.33,2.38,12.72,4.81,19.14,7.1a132.71,132.71,0,0,1-7.24,16.07c-1.09,2,1.54,4.17,3.22,2.48a8.93,8.93,0,0,0,2.43-3.27,1.11,1.11,0,0,0-.13-1.22,114.86,114.86,0,0,0,5.13-12.86c4.85,1.69,9.71,3.28,14.56,4.7-1.19,2.65-2.49,5.42-2,8a1.34,1.34,0,0,0,1.94.79c2.33-1.17,3.67-4.48,4.55-7.57,4.58,1.23,9.14,2.26,13.68,3,.31,6.85.59,13.71.8,20.56-57.19,1.54-113.94,8.92-171.22,8.86-59.1-.06-118.21-.88-177.31-.4a0,0,0,0,0,0,.1c8.64.17,17.28.28,25.92.41A206.92,206.92,0,0,0,125.27,570q.77-24.64,3-49.24a858.86,858.86,0,0,1,17.42-111.83C152.38,379.17,162.45,350.25,170.46,320.89ZM359.61,33.17a254.87,254.87,0,0,1,38.33,1.22c12,2.78,24.81,5.62,36.13,10.27a38.3,38.3,0,0,1,13.78,14.53c12.68,24.6-8.27,55.31-12.06,81.13a3.69,3.69,0,0,0-3.11,2.9c-16.69-6.77-29.73-17.65-43.1-30.15.09-2.46.21-4.93.41-7.45a1.33,1.33,0,0,0-2.46-.67,57.05,57.05,0,0,0-5.13,16.79,42.71,42.71,0,0,0-.57,7.25c0,1.66.7,4.46.84,6.79-3.19-.61-7.57-2.94-9.62-3.82a43.35,43.35,0,0,1-13.4-8.37C353,117.17,352.26,110.09,353,102a24.49,24.49,0,0,0-.35-14.16,1,1,0,0,0-1.92.26,33.68,33.68,0,0,1-2,9.53c-15.83,13.34-32.87,27.67-54,30a70.27,70.27,0,0,0,.92-10.19,42.52,42.52,0,0,0,6.23-14.74c.87-.82,1.75-1.63,2.6-2.49a.44.44,0,0,0-.62-.62c-.53.48-1.08.92-1.61,1.39a54.09,54.09,0,0,0,.68-13,.79.79,0,0,0-1.54-.21A72.55,72.55,0,0,1,293,108.23c-20.87,14.92-45,22.29-70.52,26.44a287.89,287.89,0,0,0,1.86-52,.29.29,0,0,0-.59,0,289.61,289.61,0,0,1-5.12,37.22c-6.13,6.45-14.58,10.92-22,15.71-5,3.24-10.89,5.82-16,9.18-13.8-26.22-23.09-64,7.61-82.66,22.59-13.77,56.89-16.37,82.46-20.4A727.55,727.55,0,0,1,359.61,33.17ZM194.86,428.69c-10.29-15.7-8-45.1-9.08-60.58-1.71-25.45-2.73-51-2.9-76.46-.16-24.34.52-48.64,1.53-73,.91-21.79,2.21-44.16-1.73-65.73,8.61-2.25,17-8.17,23.86-12.81a47.08,47.08,0,0,0,9.52-8.17q-1.76,7.55-3.78,15.07c-.85,3.18,2,5.58,5,5,23.21-4.43,53.52-10,71.19-26.36-1.38,4.42-2.59,8.91-3.9,13.29-.89,3,2,5.31,4.74,4.74,15.27-3.19,43.79-13.7,57.21-29.89,2.46,10.7,14,21,23.08,25,4.92,2.2,16.83,9.24,20.42,1.77,1.72-3.58,0-9.33-.26-13.2-.15-2.26-.22-4.48-.26-6.69,9.08,14.25,23.61,24.2,39.31,30.6.08,40.66,2.95,81.47,4.6,122.08,0,1.14.11,2.28.16,3.42-3.77,2.27-7.48,4.62-11.16,7-1.65-2.38-3.32-4.74-5.12-7-1.11-1.4-2.95.38-2.31,1.78,1.18,2.58,2.5,5.08,3.85,7.56q-4.91,3.22-9.87,6.37c-1.69-2.35-3.55-4.94-5.93-6.19-.77-.4-2,.08-1.92,1.1.31,2.8,2,5.33,3.52,7.76-1,.59-1.9,1.2-2.86,1.77-3.48,2.06-7.09,4-10.73,5.84-2-3.28-4.25-7.32-7.7-8.35a1,1,0,0,0-1.3,1c-.38,3.23,2,6.77,4.18,9.83a169.6,169.6,0,0,0-19.07,10.86c-1.09.75-.46,2.65.94,2.24a102.43,102.43,0,0,0,20.63-9.25c2.23,3.86,4.47,8.67,7.59,11.64a3,3,0,0,0,3.53.46l.41-.3a2.47,2.47,0,0,0,.87-3.33q-3.81-5.61-7.69-11.18c3.48-2.05,6.9-4.14,10.25-6.15,1-.59,2-1.2,2.95-1.8,1.78,2.92,3.65,5.79,5.48,8.68,2.14,3.38,7.62,0,5.31-3.1-2-2.8-4.07-5.63-6.16-8.4,3.17-2,6.33-4,9.42-6.07l.81,1.48c.87,1.6,2.93,5.86,5.48,4.05s-.89-5.92-2-7.56l-.47-.69q4.74-3.37,9.21-7.08c1.16,23.6,3.28,47.68,3.12,71.53Q436.17,366.67,435,382c-.75,6.41-1.75,12.79-3.12,19.11a.74.74,0,0,0,1.42.39c.13-.39.22-.78.35-1.17-1.34,15.39-4.42,31-22.31,35.32-15.47,3.7-33.81,1.93-49.64,2.41-16.34.49-32.69.86-49,.91-32.62.1-65.34-1-97.74-5C207.67,433.13,200.53,432.32,194.86,428.69ZM323.25,120.91c-9.71,5.24-19.38,10.14-29.79,13.55.37-1.76.72-3.53,1-5.3,20.63.08,39.66-18.39,54.08-31.3C344.3,108.85,334.44,114.87,323.25,120.91ZM222.42,135.34c24-3.23,48.26-9.61,68.1-23.41A54.25,54.25,0,0,1,268,129.67c-14.66,6.45-31,9.49-46.69,13.09Q221.92,139.05,222.42,135.34ZM437.64,325.59q-.95-23-1.94-46.1c0-.43,0-.86,0-1.29.27-.24.57-.45.84-.68.82-.72,0-2-.93-1.82-1.64-41.23-2.22-82.73-5.5-123.87q1.48.58,3,1.12C436,210.43,438.82,268,437.64,325.59Zm-256.3-172.3c3.52,56.23-1.53,112.6.13,169,.84,28.47,2,57.21,5.3,85.52.68,5.84,1.59,11.77,3.6,17a22.53,22.53,0,0,1-2.94-4.39c-3.54-6.89-4.81-15.51-6.06-23.06-2.81-16.93-3.28-34.16-3.33-51.28-.17-63.94,4.16-128.45.69-192.34C179.6,153.61,180.47,153.48,181.34,153.29ZM507.66,566.1,520.1,561l8.29-3.37c2.47-2.16,4.81-2.24,7-.29a41.62,41.62,0,0,1-5.23,17.09c-9.07,4.93-22,9.23-33.12,8.84a31.55,31.55,0,0,1-5.41-3.13,6,6,0,0,0-6.36-.74C484.66,572.73,502.44,568.22,507.66,566.1Zm-204.6,3.44c57.29.25,114.08-7.12,171.28-8.14.07,2.33.09,4.66.14,7-58.9-.08-117.82,1.9-176.72,2.15q-43.8.19-87.59-.32c-13.93-.15-28.45-1.15-42.95-1.63C212.49,569.18,257.78,569.34,303.06,569.54Zm198.2,15.36c9.16-.35,19-3.5,26.84-7.42C521.39,585.77,510.83,587.72,501.26,584.9Zm34.42-30.68a11.82,11.82,0,0,0-3.51.42c-11.66,2-24.4,9.26-35.49,13.47-4.21,1.6-8.43,2.72-11.54,4-.65-39.17-2.91-78.3-7.94-116.83q12,.09,24.05.13a84.94,84.94,0,0,1-.51,11.5c-.17,1.48,2.24,1.52,2.35,0a84.79,84.79,0,0,0,.06-11.5h7.6c0,.17,0,.34,0,.5-.08,2.8-.85,5.91.7,8.35a.79.79,0,0,0,1.35,0c1.55-2.44.78-5.55.7-8.35,0-.17,0-.34,0-.51,3.87,0,7.74,0,11.6,0a406.05,406.05,0,0,1,10.33,77.29C535.66,539.42,536.15,546.91,535.68,554.22Zm-12.32-106c.52,2.05,1,4.12,1.48,6.18-3.79,0-7.59,0-11.38,0l-.26-9.27a1.08,1.08,0,0,0-2.15,0q-.13,4.64-.26,9.27h-7.72a86.32,86.32,0,0,0-1.43-10.58c-.19-.94-1.57-.53-1.42.39a82.72,82.72,0,0,1,1,10.19q-12,.05-24.09.18a670.09,670.09,0,0,0-16.25-83.9q2.38-1.72,4.8-3.34c.31.39.66.76,1,1.16,1.91,2.58,3.29,5.48,5.13,8.08.47.67,1.76.29,1.43-.6a31.85,31.85,0,0,0-6-9.61q2.71-1.77,5.45-3.49c.94,2.13,1.56,4.49,3,6.24.3.37.79,0,.84-.35.26-2.21-1-4.75-2.31-6.84,4-2.48,8-4.95,12-7.57,2.57,4.41,5.07,8.87,7.39,13.46A390.79,390.79,0,0,1,523.36,448.18Zm-38-95.07a74.58,74.58,0,0,0-12.59,6.77,33,33,0,0,0-6.28-7c-.62-.52-1.52.35-.9.9a31.87,31.87,0,0,1,5.88,7q-2.88,2-5.66,4.1c-1.71-1.83-3.51-3.53-5.24-5-.66-.58-1.62.37-1,1a59.29,59.29,0,0,1,4.87,5.11q-2,1.61-4,3.27-6.14-23-14.27-45.39c.12-5.52.15-11,.2-16.56,2.36-1.5,4.65-3.11,6.87-4.79C463.62,319.56,475.2,335.83,485.36,353.11ZM458.73,203.85c11.85,2.24,14.05,5.92,17.45,17.11,3.07,10.09,3.92,21.59,1,31.79-5.18,18-18.74,28.57-30.74,41.19,0-18.21-.38-36.43-1-54.64a4,4,0,0,0,2.94-1.7c2.75-3.72,2.84-8.36,6.66-11.54s11.34-4.81,12.77,2.1c.16.77,1.34.58,1.35-.18a11.18,11.18,0,0,0-12.6-11c-4.34.64-8.69,3.83-11.6,7.91q-.32-8.61-.7-17.22Q448.24,197.23,458.73,203.85Zm-7.56-104.6c-3.95,13.89-8.08,27.73-12.15,41.58a4.78,4.78,0,0,0-1.32-.47c4.36-25.63,29.78-64.86,9.49-87.68C458.86,64.4,455.78,83,451.17,99.24ZM164.74,74.11c9.65-27.05,38.23-28.54,62.58-32.29,48.08-7.4,96.08-8.49,144.27-12.47,3.2.4,6.39.86,9.59,1.42-1.88,0-3.74.07-5.57.15-6.19-.07-12.4.05-18.6.29A738.88,738.88,0,0,0,246.47,43.86c-24.31,4.64-59.6,7.31-73.93,30.9-13.8,22.73-5,49.37,6.6,71-.84.6-1.65,1.23-2.44,1.89C166.84,124.91,155.88,99,164.74,74.11ZM140.93,252.86c-5.69-12.78-6.44-25.69,1.92-37.52,6.69-9.47,19.91-16.51,28.59-7.4q-.28,10.39-.44,20.79a26.36,26.36,0,0,0-4.63-5.18c-7-5.38-20.19-5.57-21.88,5.22-.16,1,1.36,1.51,1.6.44,1.15-5,6.51-7.85,11.47-6.67,5.21,1.23,8.24,6.56,10,11.17A36.39,36.39,0,0,1,170,246.19c.06,2.45-.2,4.07.79,5.86q-.12,20.78-.14,41.53c-3.32-3.79-7.21-7-10.58-11A129.76,129.76,0,0,1,140.93,252.86ZM170.5,303.1c-2.57,5-4.95,10.13-7.19,15.37a47.74,47.74,0,0,0-10.16-7.58q5-5.3,10.24-10.45A22.94,22.94,0,0,0,170.5,303.1Zm-17.85,8.31a53.43,53.43,0,0,1,6.13,4.58,49.56,49.56,0,0,1,3.89,4c-3.66,8.73-6.92,17.74-9.86,26.88l-18.38-14.82Q143.13,321.47,152.65,311.41Zm-26,30.44c3.61,4,7.16,8,10.6,12.1.5.6,6.42,6.66,6.08,7.53-.71,1.85-5.87-1.89-7.86-3-5.06-2.92-9.73-6.19-14.87-8.47Q123.57,345.87,126.66,341.86Zm-6.5,8.74c8.68,4,16.07,10.81,25.43,13.6.47.14,1-.46.69-.9-1.91-2.49-14-16.68-17.73-20.88,3.39,3.07,13.85,11.28,20.53,16.58-4.65,15.94-8.54,32-12.2,47.5q-8.4,35.49-13.73,71.68A42.63,42.63,0,0,0,107,470.93a58.55,58.55,0,0,1,1.15-7.71,1,1,0,0,0-1.89-.52c-.81,2.45-1.51,5-2.08,7.61a73.28,73.28,0,0,0-7.31-1c-.07-2.51-.21-5-.3-7.53a1.18,1.18,0,0,0-2.35,0c-.07,2.45-.09,4.9-.15,7.35a126.32,126.32,0,0,0-27.39,1.92q2.26-11,5.3-21.81C82.17,413,98.79,380.29,120.17,350.59Zm-7.36,248.62c-16.19,12.62-34.27,8.41-44-10.33-7.69-14.75-8-33.74-8.31-50a304.81,304.81,0,0,1,5.14-62,127.34,127.34,0,0,1,23.6,5.66c3.22,1.72,6.39,3.61,9.58,5.73,7.08,4.72,13.58,8.72,21.59,10.89-.75,6.26-1.46,12.52-2.06,18.79q-3.85,40.23-3.71,80.61A3.82,3.82,0,0,0,112.81,599.21Zm-19,177.4c-2.28,0-16.63,2-15.84-4,.46-3.48,20.39-9.26,23.15-10.22l.14,0c1.92,4.35,3.63,9.15,6.54,12.92.32.41,1.06.2.9-.38-1.28-4.56-4.07-8.76-6.42-12.86,9.34-3.06,19.41-4.35,28.18-8.71,2,1.35,5.08.73,6.86-1.19a1.06,1.06,0,0,0,.93,1c4.85.59,9.7,1,14.57,1.16a.39.39,0,0,0,.63.18,1.75,1.75,0,0,1,.23-.13l2,0c3.07,1.78,6.55,10,7.07,11.34a41,41,0,0,1,2.31,9.7Q129.4,776.31,93.78,776.61Zm70.76-28.35a3.76,3.76,0,0,0-1.88,1.42c-3.88-.93-7.77-1.83-11.68-2.61,4.6,0,9.19-.1,13.77-.28C164.66,747.28,164.61,747.77,164.54,748.26ZM161.63,752a180.06,180.06,0,0,1-23.42-.82.91.91,0,0,0-.26,0,5.2,5.2,0,0,0,.64-3.59A202.23,202.23,0,0,1,161.63,752ZM167,775.41c0-.3-.08-.63-.21-1.41a.34.34,0,0,0-.4-.31,38.92,38.92,0,0,0-5.7-15.06,22.76,22.76,0,0,0-3.27-4.19c1.69,0,3.39.06,5.08,0,3.63,7.94,9.12,12.61,10.87,20.81Zm17.89-68.21c-6.63,10.51-16.34,23.94-19.62,37-9-.5-18.23,0-27.24.44q-5.79-32.29-9.05-64.91c8.31,4,17.55,4.24,27.18,3.13,16.76-1.94,33.17-4,49.94-5.11A293.29,293.29,0,0,0,184.93,707.19Zm109.86-81.26c-33.62-2.48-58,17.43-79.35,41-2.62.41-5.24.77-7.89,1-13.44-5-30-1.91-43.8-1.41-8.7.31-25.81-2.27-35.76,2.09a839.34,839.34,0,0,1-2.79-96.36c27,5.75,57.58,3.72,85,4.22,29.19.53,58.4.64,87.59.61,58.91-.06,118,0,176.87-1.72.55,28.45.35,56.9-.29,85.35-4.63,1.36-9.3,2.55-14,3.62-7.65.12-15.5,1.45-22.61,1.94l-55.28,3.79-1.22-.1-.53-.45C355.91,648.45,328.35,628.41,294.79,625.93Zm90.6,47.59c16-.19,31.94-.55,47.92-.35,13.27.16,27.44,2.09,40.72,0-.64,24.3-1.53,48.6-2.47,72.88a5,5,0,0,0,.19,1.56,5,5,0,0,0-1.13,2,179.46,179.46,0,0,1-20.85-3.18c6.76-.23,13.72-.56,19.77-2.45.63-.2.76-1.3,0-1.42-7.89-1.18-16.79.25-25,1.15C435.75,715.66,407.69,692.32,385.4,673.52Zm60,74.77c.88.21,1.76.47,2.65.67-.91-.1-1.82-.26-2.73-.38A2.69,2.69,0,0,0,445.4,748.3Zm31.93,18.06c-9.82.61-19.64,1.45-29.41,2.58-2.81.33-12.6,2.29-14.65-.73-2.55-3.77,5.19-15.15,8.66-18.24a2.28,2.28,0,0,0,2,0,167.11,167.11,0,0,0,26.73,2.5,3.33,3.33,0,0,0,3.65,2.22c9.73-.59,18.94-2.11,28.62-1.09a13.75,13.75,0,0,1,.52,1.45c.39,1.54.28,3.13.83,4.63a.54.54,0,0,0,1,0c.65-1.83.12-4-.81-5.91l.58.06c7.79,1.13,24,4,30,11.88C515.86,765,496.58,765.16,477.33,766.36Z"/></svg>