<svg id="Layer_1" data-name="Layer 1" xmlns="http://www.w3.org/2000/svg" viewBox="0 0 600 800"><defs><style>.cls-1{fill:#1a1a1a;}.cls-2{fill:#574060;}.cls-3{fill:#333;}.cls-4{fill:#eaac73;}.cls-5{fill:#f2f2f2;}.cls-6{fill:#8c6239;}</style></defs><title>grandma</title><path class="cls-1" d="M531.59,640.19a13.82,13.82,0,0,0,2.73-7.43c.26-4.56-1.74-9.17-5.94-13.7a13.07,13.07,0,0,0-2.21-1.9c3.69-10.31,7.34-21.35,11.33-34.25a9.78,9.78,0,0,0-.29-6.5,6.67,6.67,0,0,0,0-1.5,6.55,6.55,0,0,0-3.71-5.06A46.33,46.33,0,0,0,518.81,566c.33-4.58.55-9.57.69-15.41a7.23,7.23,0,0,0,.13-6.89v0c9-2.19,14.87-5.85,17.75-11.12,1.55-2.84,2.84-7.38.8-13.46,2.61-12.56,3.18-26.42,1.51-37.44-1.82-12.07-8.69-19.37-21-22.31l-.07-.76c-1.85-20.45-3.76-41.6-4.25-62.46-.24-10.46.14-21.22.52-31.64.43-11.9.87-24.17.4-36.33.93-.88,1.79-1.77,2.61-2.66,8-8.67,13.21-19.75,14.1-29.69a47.81,47.81,0,0,0,.47-9.85l-.38-6.82-2.55.36a8.76,8.76,0,0,0-1.54-1.73,9.42,9.42,0,0,0-7.25-3.32,10.86,10.86,0,0,0-6.11,2l-.65.08c.56-19.11.75-38.37.94-57.07.14-13.59.28-27.65.56-41.46,0-1.29.07-2.67.11-4.1.54-17.42,1.53-49.83-27.5-51.78-.69,0-1.37-.07-2-.07-6.47,0-11.78,2.16-15.78,6.42-9.46,10.07-8.27,29-7.4,42.83.2,3.26.38,6.08.38,8.25,0,10.78-.29,22-.57,32.79-.61,23.25-1.23,47.22.86,70.49l-26.43,3.45q-19,2.48-37.93,4.93c-9.43-52.81-23.54-98.82-43-140.47-25-53.3-52.4-90.58-83.91-114A118.86,118.86,0,0,0,199.91,13c-19.83,0-40.56,4.41-61.63,13.11C100.42,41.73,52,68.57,36.62,107.69a7.78,7.78,0,0,0,.81,7.22,8.4,8.4,0,0,0,6.86,3.62,7.85,7.85,0,0,0,4.91-1.72,8.12,8.12,0,0,0,1.38-.43c7-2.89,13.81-6.17,20.36-9.35,11.84-5.75,23-11.18,35.56-14.41a179.42,179.42,0,0,1,33.57-5.26c1.47-.09,2.75-.15,3.86-.15l1,0c-.15,1.2-.41,2.75-.64,4.09-.2,1.17-.41,2.44-.62,3.82a11.66,11.66,0,0,0,2.39,9.23,10.79,10.79,0,0,0,8.06,3.87l.84,0c-.17.55-.31,1.11-.44,1.67a9.22,9.22,0,0,0-.31,1.72c-.13.67-.24,1.35-.3,2.06l0,.86-4.37,5.57,11.21,1.9a42,42,0,0,0,18.72,7.13c1.19,8.68,2.89,17.29,4.54,25.65,2,10.22,4.11,20.79,5.17,31.18,2.41,23.57,1.32,44-3.34,62.38a113.55,113.55,0,0,1-10.49,27c-1,1.81-2.18,3.65-3.43,5.59-3.32,5.17-7.07,11-8.27,18a27.71,27.71,0,0,0-.18,8.51l-6-.08C136.09,307.07,117,306,99,304.12c-11.38-1.19-22.76-3.67-33.76-6.07-8.69-1.89-17.68-3.85-26.79-5.22l-.7-.09h-.47a7.79,7.79,0,0,0-7.48,5.65,7.41,7.41,0,0,0,.6,5.55c2,17.73,12.22,33.73,28.19,44.08,15.54,10.07,34.11,11.5,50.28,11.52-7.5,4.07-14.93,8.36-22.41,12.74l-2.13,1.24C65.7,384.42,44.56,396.74,36.82,420,17.9,476.94,77.94,534.44,97.4,551.18a37.85,37.85,0,0,0,2.26,9.08,19.6,19.6,0,0,0-4,11.22,23.45,23.45,0,0,0,15.75,23.58c-1.12,14.76-.55,29.79,0,44.38.16,4.26.32,8.5.44,12.7.13,4.65.14,9.44.16,14.28,0,11.71.07,23.81,1.71,35.49,0,3.07.06,5.8.06,8.16v5.53l3,.38a8.65,8.65,0,0,0,7.71,4.7,9.22,9.22,0,0,0,3-.51A132.3,132.3,0,0,0,144,722.51c2.32.23,4.56.45,6.75.72,0,1.06.11,2.08.17,3.06.24,3.68.44,6.6-.8,9.38-3.33,7.48-13.75,11-24.5,13.73l-.65.16c-9.64,2.42-24.2,6.08-20.27,25.06C105.84,780,109.85,789,124.26,789a69.14,69.14,0,0,0,9.84-.9c12.52-1.81,22.6-5,30.53-9.61a14.28,14.28,0,0,0,2.93,3.55c3.2,2.79,7.65,4.15,13.59,4.15,5.75,0,11.88-1.25,16.8-2.26,1.59-.32,3-.62,4.22-.82,4.36-.72,17.65-2.9,15.37-19.83a88,88,0,0,0-4.19-16c-1.67-5-3.27-9.86-3.75-14.62,14.34,1.56,29.25,2.52,44.42,2.85q5.88.13,11.76.13h3.71a113.35,113.35,0,0,0-3.91,17.91l-.42,2.6c-.13.76-.29,1.59-.47,2.47-1.21,6.07-3.75,18.71,7.61,23.23a23.53,23.53,0,0,0,8.62,1.39c1.24,0,2.49-.05,3.72-.1,1,0,2-.09,2.88-.09h.36c1.23,0,2.6.14,4,.26,1.92.16,4.09.35,6.25.35a21.84,21.84,0,0,0,8.7-1.51c3.32-1.4,5.95-4.1,7.88-8.07,9.1,6.64,20.88,10.32,33.65,10.32a61.09,61.09,0,0,0,17.5-2.51,10.85,10.85,0,0,0,7.76-10c.06-1.11.17-2.16.26-3.14.52-5.25,1.48-15-11.72-17.52-7.78-1.47-24.59-6-29.8-18.13,8.46-.6,17.69-1.33,28.94-2.28,1.56-.13,3.09-.24,4.6-.33a82.75,82.75,0,0,0,13.41-1.63,13,13,0,0,0,5.55,1.25,9.25,9.25,0,0,0,6.85-3.17,8.36,8.36,0,0,0,2.07-6.53c0-.27,0-.6,0-.95s0-.91,0-1.37a12.38,12.38,0,0,0,.56-3.34c0-.19,0-.37,0-.56a10.36,10.36,0,0,0,.75-8.94l-1-2.87C380,663.68,365.43,623.65,355.84,583c-5.79-24.54-9-49.84-9.83-78.68,10.56,7.11,22.9,11.1,32.3,13.67a248,248,0,0,0,64.23,9c3.33,0,6.63-.09,9.84-.26a22.4,22.4,0,0,0,2,5.61c3.41,6.64,9.32,9.67,14.82,11.21-.19,4.74-.24,9.47-.28,14.08,0,0,0,2.59,0,2.74-7-1-13.58-1.92-20.35-2.66a11.45,11.45,0,0,0-1.25-.07,11.71,11.71,0,0,0-9.21,4.61,13.66,13.66,0,0,0-2.58,11.41c1,4.26,1.75,9.1,2.5,14.23,1.34,9.17,2.71,18.59,6.21,26.9a19.52,19.52,0,0,0-5.25,7.83,15.93,15.93,0,0,0,8,19.73c-8.93,30.42-17.23,61.44-25.28,91.49q-5.3,19.79-10.65,39.56a11.26,11.26,0,0,0,2,9.71,10.43,10.43,0,0,0,8.31,4.21c.27,0,.54,0,.81,0,42.56-3.39,85.77-5.1,128.44-5.1l8.59,0a11.62,11.62,0,0,0,9.37-5,10.51,10.51,0,0,0,1.31-9.78C554.93,727.9,542.41,686.25,531.59,640.19ZM384.64,450a11.22,11.22,0,0,0,1.36-8.65q-1.94-7.56-3.86-15.12c-2.13-8.38-4.31-17-6.56-25.53,1.87.25,3.79.57,5.78,1a11,11,0,0,0,2.08.2,10,10,0,0,0,10-9.41c1-14,.21-26.27-2.32-37.37,27.81-.8,50-2.44,70.65-5.21.06.68.14,1.36.24,2.05-2,10.86-.59,23.12.67,34,.4,3.45.78,6.7,1,9.59.93,12.41,1.71,25.06,2.47,37.3.58,9.36,1.16,18.72,1.8,28.06a26.43,26.43,0,0,0-11.36,10.42c-3.18-.33-6.32-.49-9.4-.64s-6.26-.31-9.3-.65a207.44,207.44,0,0,1-32.59-6.3,182.76,182.76,0,0,1-25.39-9.55A10.41,10.41,0,0,0,384.64,450ZM137.71,407.49c-1.47,5-2.88,10.11-4.19,15.37-1.17,3.94-2.29,7.89-3.34,11.87l-1.61,6.05c-3.74,14-8,29.87-10,45.39-.18.65-.35,1.32-.51,2-10.49-13.24-21.27-28.35-23.44-42C91.76,427.74,117.24,415.34,137.71,407.49Z"/><path class="cls-2" d="M171.41,344.74c-42.72,18.07-121.12,37-127.56,91.92C41,461.1,57,485.34,69.85,505.11,86.07,530,103.66,548,130.14,562.7,151,574.3,169.85,543,149,531.42c-19.83-11-32.85-23.36-45.18-42C95,476.18,75.89,452.82,82.28,436.26c6.57-17,27.33-26.06,43-32.79,21.59-9.25,43.28-18.3,64.92-27.46C212.22,366.72,193.23,335.51,171.41,344.74Z"/><path class="cls-2" d="M462.63,482.83c-52.82,5.55-106.07-15.08-137.57-57.35-13.95-18.71-46.34-.65-32.23,18.28C331.67,495.9,396.08,526,462.63,519.05,486.26,516.57,486.52,480.32,462.63,482.83Z"/><polygon class="cls-3" points="151.99 636.15 160.46 737 198.08 737 192.91 627.94 151.99 636.15"/><polygon class="cls-3" points="287.14 643.45 282.04 737 317.53 737 328.34 640.26 287.14 643.45"/><path class="cls-2" d="M178.48,341.37c-69,71.8-58.41,315.17-58.41,368.71,191.87,23.12,263.35,6.69,263.35,6.69s-60.43-184.5-43-270.22L259.46,320.07Z"/><path class="cls-4" d="M367.83,297.21s16.81,65.46,15.53,95.72l-20.69-3,13.27,55.83s-106.72,21-114.61-45.08c0,0-30.92,13.39-45.38-20.69s3-62.18,25.14-53.64,22.58,19.47,22.58,19.47V297.21Z"/><path class="cls-5" d="M358,338.37c-2.93,16.43-10.35,27.38-34,24.7-21.36-2.42-34-32.21-34-32.21Z"/><path class="cls-3" d="M282,737s-8.7,12.32-8.53,32.4l31,2.28,4.52-17.34s12.7,24.19,53.14,20.77V763.47s-40-5-44.68-26.47Z"/><path class="cls-3" d="M198,737s8.75,12.32,8.58,32.4l-31.23,2.28-4.54-17.34S158,778.53,117.32,775.11V763.47s38.4-5,43.14-26.47Z"/><path class="cls-4" d="M125.68,514.12l-19.36,31s-.1,13,3,16.74c-6,10.75,4,30.22,22.37,22.92,10-4,15.08-20.23,17.67-34.31,2.39-12.94-4.19-25.9-16.06-32.25Z"/><path class="cls-6" d="M503.87,384.28c-1.47-79.48,3.46-158.69-.14-238.25-.84-18.57-30.71-18.68-29.86,0,3.5,77.25-.77,154.08,0,231.27.8,76.39,12.3,153.27.19,229.34-2.91,18.24,25.87,26.1,28.8,7.7C515.09,537.71,505.29,461.23,503.87,384.28Z"/><path class="cls-4" d="M513.78,469.81H475.23a15.61,15.61,0,0,0-15.84,15.37V518a15.61,15.61,0,0,0,15.84,15.37h38.55A15.61,15.61,0,0,0,529.62,518V485.18A15.61,15.61,0,0,0,513.78,469.81Z"/><polygon class="cls-4" points="448.26 572.27 527.13 575 515.04 621.35 457.19 619.35 448.26 572.27"/><path class="cls-3" d="M518.33,621.74l-3.29-.39-57.84-2h-.91a7.78,7.78,0,0,0-.64,15.55l61,4.72a7.94,7.94,0,0,0,8.66-7.42l.11-2.39A7.86,7.86,0,0,0,518.33,621.74Z"/><polygon class="cls-4" points="424.28 772.14 558.46 775.11 516.61 639.62 455.65 634.9 424.28 772.14"/><path class="cls-2" d="M526.24,286.35s-385,53-488.47,16.88c9.41,36.93,35.74,41.42,62.08,43.32s354.93-.29,383-10.18S527.51,309.21,526.24,286.35Z"/><path class="cls-2" d="M394.13,316.76s-34.77-203-135-274.47-214,67.06-214,67.06,85.37-40,109-30.4v21.47l22.68-5.07-15.93,20.37,28.16,4.78s23.34,144.07-4.32,162.39,0,33.87,0,33.87Z"/><path class="cls-1" d="M324.37,290.89l9.23-1.29A41.34,41.34,0,0,0,324.37,290.89Z"/><path class="cls-1" d="M239.85,382.25a17.59,17.59,0,0,0,11.19-.5c2.06-.88,3.21-2.63,5.09-3.6,6.85-3.55,9.11,3.76,8.57,8.7,0,.36.47.36.58.08,2.4-6.06.25-16.16-7.95-16.14a9.94,9.94,0,0,0-2.11.26c0-2.4-2-5.22-4-7.26a11.71,11.71,0,0,0,3.39-5.63c.51-2-2.3-4.09-3.79-2.21a21,21,0,0,1-5.32,5.25c-2,1.2-1.65,3.62,0,4.89,2.35,1.81,3.86,4.14,6,6.14l0,0c-2.44,1-4.86,2-7.7,1.51-5.46-.94-8.33-4.43-12.22-7.7a1.35,1.35,0,0,0-2.21.58C226.66,373.25,234,380.69,239.85,382.25Z"/><path class="cls-1" d="M160.19,404.46c-1.86,4.41-3.65,8.81-5.4,13.22,1.8-4.41,3.67-8.79,5.69-13.1A.16.16,0,1,0,160.19,404.46Z"/><path class="cls-1" d="M284.38,467.64c.72-.85-.19-2.26-1.25-1.61-30,18.28-57.57,6-79-18.66-.11-.12-.33,0-.23.18C220.65,470.07,260.17,496.33,284.38,467.64Z"/><path class="cls-1" d="M241.14,528.22c-11.46.07-20.43-4.63-30.26-10.21a.1.1,0,0,0-.1.17c18.09,11.28,31.13,15.35,51.22,7,15.85-6.58,35.2-15.27,43-31.62.43-.9-.7-2-1.46-1.13-10.75,11.71-21.28,20.56-35.71,27.67C258.95,524.49,251.13,528.16,241.14,528.22Z"/><path class="cls-1" d="M563.94,769.62c-16.12-42.8-28.86-86.68-39.2-131.21,4.07-3.47,5.16-8.5-1-15.08a12.5,12.5,0,0,0-5.46-2.93c4.78-13,9.1-26.12,13.19-39.33a3.83,3.83,0,0,0-1.6-4.18c.32-.24.64-.48.94-.74a.39.39,0,0,0-.08-.61c-5.67-2.67-12.19-3.38-18.75-3.75.81-7.8,1.12-15.73,1.27-23.6l.47-.31a.93.93,0,0,0-.44-1.7c0-2,.07-4,.1-6a3.93,3.93,0,0,0-.26-1.5c12.86-2.06,23.65-7.18,18.51-19,2.7-12,3.53-25.77,1.84-37-1.51-10-6.9-15.07-16.79-17.28-1.2-.27-2.48-.53-3.83-.79-2-22.75-4.22-45.38-4.75-68.25-.55-23.55,2-47.31.79-70.77a53.43,53.43,0,0,0,4.39-4.24c8.32-9.06,15.28-23.41,11.56-35.79a3.06,3.06,0,0,0-1.3-3.19c-1.55-2.37-4.61-1.77-6.3.15-3.25.38-6.5.79-9.76,1.18,1.22-35.26,1-70.49,1.73-105.76.35-17,3.38-47.83-21.55-49.5-25.37-1.7-18.14,36.46-18.14,51.18,0,35.7-3.11,73.16.86,108.71-25.45,3.28-50.9,6.68-76.36,9.92,0-.05,0-.1,0-.15-8.5-49.81-22.07-98.78-43.54-144.64-19.21-41-45-84.15-82-111.6-38.6-28.66-84.74-27.71-127.88-9.91C105.42,46.45,57.33,72.24,42.45,110c-.66,1.68,1.88,3.08,3,1.76l1.1-1.26a1.79,1.79,0,0,0,1.64.1c19.2-7.89,36.3-18.77,56.73-24a186.15,186.15,0,0,1,34.74-5.45c14.31-.9,12.24,1.77,10.19,15-.47,3,1.2,5.76,4.48,5.88a41.68,41.68,0,0,0,11.45-1.11,27.79,27.79,0,0,0-5.2,10.64,3,3,0,0,0-.14.88c-.11.61-.24,1.22-.29,1.84a.39.39,0,0,0,.59.34l.36-.26a2.24,2.24,0,0,0,.16.22c6.93,6.22,15.09,8.44,23.76,8.88,2.3,20.76,8.21,41.1,10.35,62,2.21,21.56,1.85,43.45-3.5,64.56a119.49,119.49,0,0,1-11.08,28.5c-3.82,6.92-9.62,13.6-11,21.61a18.64,18.64,0,0,0,1.36,11.55l-.6.21a.85.85,0,0,0,.45,1.63l1.24-.18c.13.18.23.4.38.57q-7.63-.05-15.26-.17c-19.7-.3-39.41-1.26-59-3.31C77.61,308.18,58,302.1,37.53,299a1.38,1.38,0,0,0-1.06,2.5l.05,0a2.46,2.46,0,0,0,0,.31C38,318.82,47.79,333.55,62,342.77c19.39,12.57,44.22,10.51,66.26,10.21l8.47-.13c-16.44,7.08-32.33,16.21-47.11,24.85C70.89,388.66,50,400.14,42.76,422c-15.54,46.73,26.32,96.66,59,124.69a4.14,4.14,0,0,0,1.63.87,31.78,31.78,0,0,0,3.75,14.1c-7.84,5.53-6.33,18.21.74,24.28a20.35,20.35,0,0,0,10.23,4.38c-2.15,20.25-.58,41.38,0,61.64.55,19.56-1,41.44,4,60.43.65,2.48,3.17,2.49,4.6,1.13,9.47,2.55,19.7,2.52,29.38,4.14l1.14.2c-1.06,6.82,1.7,13.4-1.4,20.36-4.72,10.58-18.08,14.57-28.69,17.25s-19.08,4.51-16.31,17.87c2.31,11.15,13.42,9.86,22.36,8.56,12.09-1.75,25.82-5.42,35.14-13.79,0,3.69,1,7.14,3.34,9.21,6.27,5.47,22.19.8,29.48-.39,8.11-1.33,11.31-4.34,10.17-12.81-1.75-13-9.77-25-7.85-38.46a498.73,498.73,0,0,0,50.68,3.62c8.4.18,16.81.14,25.21,0-5.21,7.63-6.67,19.68-8,27.91-1,6-4.27,15.85,3.27,18.85,4,1.57,9.19.69,13.35.75,4.94.07,11.78,1.57,16.44-.4,4.23-1.78,6.26-8,7.16-13.7,12.26,14.46,34.63,18.55,52.52,13.21a4.62,4.62,0,0,0,3.29-4.32c.4-7.47,2.66-12.46-6.36-14.17-16.17-3.06-35-11.63-36.39-30,12.06-.79,24.12-1.75,36.16-2.78,7-.59,13.36-.56,19.58-2.49a6.73,6.73,0,0,0,4.5,1.75c1.32,0,2.9-1.25,2.71-2.71-.13-1,.06-2.6-.08-4a6.87,6.87,0,0,0,.61-2.55,3.07,3.07,0,0,0-.79-2,4,4,0,0,0,1.91-5.15c-14.73-40.47-29.6-81-39.5-122.94-7.53-31.93-10.09-62.57-10.24-94,9.94,11.52,26.26,17.67,40.46,21.55,24.33,6.64,52.68,10.39,78,8.13a22.2,22.2,0,0,0,2,9.42c3.1,6,9.41,8.09,15.82,9.06,0,.13-.05.26-.06.39-.45,7-.48,14.06-.55,21.08,0,2.69-.34,5.22-.17,7.6-9-1.35-18-2.68-27.12-3.66-4.38-.48-7.18,4.52-6.28,8.24,3.36,13.76,3.33,32.2,10.66,44.73-5.72,2.51-10.1,9.41-6.87,15.6,1.92,3.67,5.47,5.07,9.3,5.79-13.45,45.3-25.19,91.16-37.61,136.75-.76,2.78,1.45,6.25,4.57,6q68.64-5.46,137.51-5.1C562.13,776,565.11,772.71,563.94,769.62Zm-86.38-128a96.25,96.25,0,0,1-2.64,11.22c-1.6,5.62-3.08,11.29-4.55,16.95q-4.41,17-8.27,34.1c-4.92,21.79-9.28,43.75-12.79,65.82q-4.57.3-9.14.63c14-41.73,23-86.61,31.66-129.58Zm2.53.37q3,.43,6,.82c-6.82,40.59-9.66,84.23-9.69,125.37q-12.57.62-25.13,1.41C458.79,726.42,468.68,684.16,480.1,641.94Zm6.85.93,2.21.28c1.41,41.4,3.33,82.77,5,124.17-5.52.21-11,.49-16.55.76C481.61,726.74,485.35,684.35,486.95,642.87Zm-9.31-11.33c-5.14-.67-19.68.84-18.1-8a13.51,13.51,0,0,0,2.14-2.08c4.29.81,9.52.49,12.29.63,5.91.28,11.84.05,17.76,0v0c-.1.68.93,1,1,.29l.05-.34c1,0,1.94,0,2.9,0q5.44,0,10.87.24a13.91,13.91,0,0,1,3.57-.38,3.92,3.92,0,0,0,3.78,2.42,8.79,8.79,0,0,1-.34,4.87q3.32,8.5-4.78,6.1a92.71,92.71,0,0,1-13.9-1.32C489.14,633.18,483.4,632.29,477.64,631.54Zm9.26-50.78c-.75,12.3-1.82,24.71-1.63,37l-6.09,0a.77.77,0,0,0,.6-.81c-1-12.4-2.45-24.76-3.78-37.13C479.63,580.22,483.26,580.48,486.9,580.75ZM477.65,614a.59.59,0,0,0-.29.62l.57,2.67a.77.77,0,0,0,.53.56c-3.64,0-7,.06-10,0,.24-13-1.56-26.23-3.84-39.08,3.46.35,6.92.72,10.39,1C475.85,591.2,476.62,602.6,477.65,614Zm42.45-32.35c1,.36,1.91.67,2.87,1-4,12.14-8.18,24.19-12.49,36.21a158.44,158.44,0,0,0-17-1c1.84-11.91,3.51-24.37,2.56-36.26,0-.16-.28-.23-.31,0-1.66,12-2.06,24.2-3.5,36.29-1.75,0-3.51,0-5.25,0,1.06-12.24.89-24.66,1-37,4.41.33,8.83.7,13.24,1,5.94.36,12.38.73,18.31-.44A4.07,4.07,0,0,0,520.1,581.64Zm7.63-61.45a16,16,0,0,1-2.15,2.8c-.32-10.83-.53-21.67-1-32.48A48.13,48.13,0,0,0,523,479.67C529.62,488.65,527.72,507.56,527.73,520.18Zm-9.83-44.64a11.38,11.38,0,0,1,3.27,2.11c2.49,6.47,2.35,13.62,2.59,20.67q.43,12.8.86,25.6c-10.29,9.54-33.65,10.36-46.08,6.56-2.51-19.22-.59-37,3-56.11a.59.59,0,0,0-1.13-.31,104.82,104.82,0,0,0-4.66,23.19c-.92,9.09,1.15,18.83.06,27.68a45.88,45.88,0,0,0,.61,4.83,19.37,19.37,0,0,1-2.23-1.05c-.7-1.16-1.57-2.74-2.71-4.95-2.31-4.46-2.45-11.94-2.77-16.88a93.21,93.21,0,0,1,3.06-29.62,11,11,0,0,1,1.39-1.17c5.62-4,15.25-2.57,21.69-2.34C501.7,474,511.49,472.94,517.9,475.55Zm-57.55,2.55c-7.62-1.33-15.45-1-23.2-1.9a213.21,213.21,0,0,1-33.58-6.49c-15.43-4.29-29.4-11.45-43.83-17.77,5.72-1,11.39-2.19,17-3.36,2.48-.52,3.83-3.39,3.24-5.7-4.21-16.37-8.27-32.8-12.68-49.12a86.1,86.1,0,0,1,15.31,1.73,3.69,3.69,0,0,0,4.58-3.49c1-14.38.23-29.21-4.24-43,27.26-.61,54.46-2,81.09-5.79q2-.28,3.92-.61a38.63,38.63,0,0,0,.37,9.37v.1c-2.84,13.53.69,31.08,1.57,42.93,1.74,23.28,2.92,46.6,4.59,69.87C467.78,467.15,462.51,471.24,460.35,478.1Zm-9.48,33.65c-1.8,0-2.68-6.35-2.84-7.83-.32-2.81.41-5.94,1-8.65a45.9,45.9,0,0,1,2.61-8.44l1.38,0,.59,3.1c-.74,7.42,1.14,15.95,3.46,22.78-1.88-.13-3.75-.27-5.62-.39A.57.57,0,0,0,450.88,511.75Zm7.54-7.15-2.25-11.07c.09-2.36.35-4.71.48-7.06.85-.1,1.69-.22,2.52-.35C458.71,492.24,458.56,498.45,458.42,504.59Zm-245.7-153q43.21-.83,86.42-1.66l4.43-.07a1.26,1.26,0,0,0-.09,1.13c7,17.45,31.2,20.46,45.41,10.62-7.5,11.15-19.32,18.61-33.93,12.44a.44.44,0,0,0-.44.76c17.63,11.44,34.89-.27,43.07-16.32-2.18,10.57-6.77,20.44-17.68,24.82-.11,0-.07.23.05.19,15.21-4.57,20-20,22.48-34.14q7.71-.08,15.42-.23c2.15,12.88,3.48,25.07,2.52,38a61.37,61.37,0,0,0-18.93-2.25,4.56,4.56,0,0,0-4.34,5.69c3.56,15,7.49,29.91,11.36,44.84-18,10.66-38.4,8.51-58.54,3-22-6-33-19.88-47.57-35.58a12.69,12.69,0,0,0,3.24-8.54.25.25,0,0,0-.37-.21c-13.36,8.45-27.81,6.91-38.64-5.22C217.07,378.21,215.53,364.78,212.71,351.55ZM329.26,362.1c-9.63-1.26-14.92-7.52-22.43-12.33,15.64-.21,31.41-.24,47.23-.37A23.74,23.74,0,0,1,329.26,362.1Zm-70,43.2c.16,1.12.35,2.24.6,3.33-.57-.93-1.11-1.88-1.67-2.82C258.57,405.64,258.95,405.49,259.29,405.3Zm55.16,37.22a113.16,113.16,0,0,0,20,3.15c-10.55.38-21-.7-31.1-4.5A62.35,62.35,0,0,1,282.78,428C291.64,434.72,301.86,439.46,314.45,442.52Zm54.67-4.46.65,2.52c-3.46.72-7,1.42-10.49,2.08A49.89,49.89,0,0,0,369.13,438.06ZM478,398c-.06-.81-.11-1.62-.17-2.43a.75.75,0,0,0,.57,0,110.12,110.12,0,0,1,21.94-6.31c0,2.35.06,4.7.08,7,.17,16,.75,32.15,2.06,48.18-7.06.65-13.66.14-20.77-2.9C481.05,427,479.13,412.36,478,398Zm22.31-11.23A58.22,58.22,0,0,1,481.92,384a87.14,87.14,0,0,0,18.34-6.2Q500.28,382.32,500.33,386.81Zm-22-3.91c-1,.18-.76,1.5,0,1.79a59.79,59.79,0,0,0,16.57,3.82,110.3,110.3,0,0,0-17,5.29,1,1,0,0,0-.2.13q-.58-8-.93-16a39.87,39.87,0,0,0,15.39,1.43A105.76,105.76,0,0,1,478.31,382.9Zm3.18,80.28a176.77,176.77,0,0,0,.27-20.41c6.38,2.75,13.84,4.35,20.9,3.56q.73,8.47,1.76,16.89A85.16,85.16,0,0,0,481.49,463.18Zm18.78-87.07c-.8.3-1.76.7-2.73,1.12a38.39,38.39,0,0,1-20.76.22c-.18-4.24-.31-8.48-.36-12.72-.09-8.57,1.57-15.82-2.12-23.34,10.35-2.23,20.5-5.81,29.18-11.68C500.81,344.8,500.25,360.56,500.27,376.12ZM476.65,182.56c0-6,0-12,.08-18q.17-6,.34-12-1.5-7.9,8-9.26,10.68-11.79,15.07,5.89a91.61,91.61,0,0,1,1.57,9.85c.72,5.27,1.18,10.55,1.42,15.86.55,12.18.48,24.41.23,36.6-.1,4.7-.23,9.4-.37,14.1-9.07,1.7-17.45,1.87-26.44-.69,0-2.07,0-4.13,0-6.19Zm-.11,44a50.07,50.07,0,0,0,26.38,1q-.84,28.46-2.58,56.89-12.45,1.53-24.9,3.12C477.61,267.57,476.73,246.84,476.55,226.58Zm-306.19-121c1.14-1.23,2.3-2.46,3.55-3.64,7.66-7.15,16.51-12.45,26-16.77,18.36-8.37,37.62-11.64,57-16.41a.44.44,0,0,0-.12-.87c-16.93.58-35.16,2.35-51.65,7.8A158.8,158.8,0,0,1,254.6,54.17a1.08,1.08,0,0,0-.57-2.08,196.81,196.81,0,0,0-46.38,17.53C192.55,77.56,177,89.49,159.7,92.15c.86-5.73,1.66-12.55-2.42-16.21-7.06-6.35-25.37-2.3-33.62-1.25-20.49,2.61-45.13,9-63.89,21,9.58-10.38,19.56-20,31.81-28.43,18.15-12.49,37.89-23.37,58.57-31,46.6-17.19,92-10.62,128.19,24.22,38.39,36.93,64.6,85.86,82.57,137.45-24.24,7.92-49.05,13.86-73.95,19.35-12.41,2.73-24.83,5.61-37.34,7.9a215,215,0,0,1-22.92,3.21q-5.76.46-11.53.42a9.6,9.6,0,0,1-9.28-2.4.29.29,0,0,0,0-.59l-1.64-.17c.1-1.17.21-2.33.29-3.5a246.77,246.77,0,0,0-.44-36.55c5.16,6.1,21.28,5.44,27.19,5.55A96.58,96.58,0,0,0,263.54,186a96.42,96.42,0,0,1-19.33,4c-9.05.9-34,3.18-40.21-6a262.62,262.62,0,0,0-7.13-41.86c20.55,31.52,60.21,45.25,97,27.76.4-.19.05-.76-.35-.59C257.53,184.53,217,173,196.72,141.68c-1-3.9-2.09-7.75-3.28-11.53A69.64,69.64,0,0,0,212,138.48c9.36,2.84,20.3,6.56,30.1,4.62a.49.49,0,0,0-.13-1c-14.95,1.23-33.14-8.7-45.19-19l.39,0,1.56-.15c11.08,3.56,22.48,7.54,33.47,9.13,8.41,1.21,15.35-.25,21.75-5.85,1.58-1.38-.71-3.6-2.28-2.28-12.36,10.27-26.68,2.65-39.61-.9-1.44-.4-2.89-.76-4.34-1.12,18.27-2.44,34.09-5.94,52.84,3,.42.2,1-.36.53-.69-11-8.46-24.9-10.55-38.43-11.34-9.61-.56-18.77.31-28.32,1C184.6,114.6,168.33,114.65,170.35,105.57Zm33.59,123.34c23.35,2.21,45.93-2.69,68.82-7.65,13.47-2.92,26.94-5.87,40.34-9.12,7.65-1.86,15.28-3.79,22.87-5.88,5.64-1.55,14-6,19.82-5.82,10,.26-1.8,7-6.42,10.28a112.63,112.63,0,0,1-18,10.25,175.38,175.38,0,0,1-40.22,12.65,314.13,314.13,0,0,1-42.6,4.93c-11,.63-33.78,5-45.68-1.27Q203.49,233.12,203.94,228.91Zm56.88,70.67c-26.81,3.63-54.14,9.26-81.13,11-.08-.18-.13-.36-.2-.54l.95-.66c2.51-.57,5.42-1.19,6.3-1.51q7.82-2.91,15.56-6c10.37-4.19,20.62-8.7,30.67-13.63,11.38-5.59,36.39-13.07,37.66-28a.82.82,0,0,0-1-.79,438.41,438.41,0,0,0-90.58,49c-3.17-12.89,11.51-30.06,15.91-41.29a141.52,141.52,0,0,0,7.8-29.15c6.08,3.6,13.88,2.83,21.46,2.74a447.17,447.17,0,0,0,51.47-3.13c30.63-3.92,65-13.09,86.19-37,11.16,32.62,19.07,66.22,24.69,98.5-36.26,4.56-72.56,8.72-109,11.51-2.37.18-4.74.33-7.1.49,3.91-.48,7.81-1,11.71-1.57,16.19-2.38,33.12-4.75,48.77-9.66,6.77-2.12,12.07-4.54,14.54-11.43.11-.31-.21-.51-.47-.47-3.8.54-7.61,1.06-11.41,1.59a8.38,8.38,0,0,1,2.59.37q6.13-2.35,2.79,5.79a38,38,0,0,1-10,3.72c-5.67,1.64-11.79,2.66-17.58,3.82-15.62,3.11-31.39,5.45-47.23,7.12-27.61,2.91-55.36,3.42-83.09,2.64-.22-.32-.43-.64-.61-1l74.64-10.65q21-3,42-6l18-2.54c2.14-.3,5.62-1.23,9.21-2Q292.6,295.31,260.82,299.58Zm-77.12,7.51a407.38,407.38,0,0,1,34.38-21.87q10.75-6,21.9-11.33,4.95-2.36,10-4.58c4.31-1.91,16.85-10.87,13.19-2.41-5,11.44-30.21,19.63-41.06,24.59C209.49,297.23,196.66,302.31,183.7,307.08Zm-2.24,6.52c1.59.11,3.18.18,4.77.28h-4.56ZM142,321.5c42.24,1.45,84.36-1.64,126.38-5.89,78-7.89,156-15.87,233.88-24.73a4.16,4.16,0,0,0,3.63-.41c3.79-.43,7.58-.84,11.38-1.28,1.9,5.73.79,11.53-2.12,17-29.46,23.16-75.57,20.8-111,23.63q-63.05,5-126.29,7.45c-41.09,1.55-82.28,1.45-123.39.86-37.35-.54-87.87,3.87-110.74-32.2l-.26-.58C72.45,319.67,110.88,320.43,142,321.5Zm-48.16,21c-20.23-1.71-34.66-11-44.4-26.07,19,20.44,49.77,22.89,77.32,23.5,48.34,1.06,96.67.11,145-1.25s96.57-3.8,144.76-7.7c30.82-2.49,67.79-1.61,94.83-19-8.64,11.06-23.47,20-32.78,22.8-18.73,5.72-38.93,4-58.22,3.82-44.55-.43-89,.25-133.59,1l-130.48,2.26C135.62,342.29,114.36,344.28,93.8,342.54Zm14.06,32.84c14.58-8.25,30.12-15,45-22.78q24-.38,48-.83c-.27,43.77,7.78,94.11,53.32,112.48.42.17.68-.5.3-.72-39.72-23.12-50.79-68.91-53.14-111.77l2.44,0a89.59,89.59,0,0,0,1.29,10.86c.45,8.21,3.13,16.87,5.08,24.2,3.55,13.32,9,26.59,17.22,37.72,12.78,17.28,31.6,28.91,53.45,27.43a.34.34,0,0,0,0-.69c-25-.65-44.95-17.68-55.15-39.77a109.16,109.16,0,0,1-5.92-16.5,42.51,42.51,0,0,0,10.36,8.54c6.3,3.64,17.82,5.85,26,3.14,4.7,8.93,9.72,18.68,16.65,25.57a.8.8,0,0,0,.56.26A74.16,74.16,0,0,0,295.54,448c12.67,5.83,26.09,7.42,39.62,6.87-9.47,39.56-3.86,83.93,4.08,123.17,1.62,8,3.51,15.93,5.52,23.83l-12,.07c5.67.14,10.22.56,12.36,1.42.18.7.35,1.39.53,2.09-6.1,4.78-47.83,18.21-52.92,19.57a278,278,0,0,1-56.83,9,282.78,282.78,0,0,1-110.88-16.47c-.16-9-.52-18-1.47-26.87A27.51,27.51,0,0,0,139,585.52c10.5-8.1,15.07-28.69,14.42-41.17-.75-14.41-11.14-26-23.37-32.9,2.5-8.67,3.26-18,4.22-27.14a.36.36,0,0,0,.38-.29,431.8,431.8,0,0,1,15.62-54.67,409.22,409.22,0,0,0-15.49,50.43c.18-1.47.37-2.93.58-4.38,1.44-9.67,3.2-19.27,5.15-28.84,2.09-6.26,4.27-12.49,6.64-18.64Q152.52,414,159,400.6c3.17-6.61,10.48-16.11,12-23.15a.2.2,0,0,0,.38.1l1.33-3.75c.17-.48-.55-.76-.81-.34A322.8,322.8,0,0,0,143,435.17c3-13.62,6.5-27.11,10.36-40.51a3.53,3.53,0,0,0,.75-2.59c2.66-9.12,5.43-18.22,8.37-27.26.05-.17-.21-.28-.29-.12q-3.94,8.46-7.5,17.07a32.23,32.23,0,0,0-9.22-22.45.77.77,0,0,0-1.3.54,71.54,71.54,0,0,0,6.78,29.26,3.5,3.5,0,0,0-.87.18c-18.3,6.48-36.75,14.27-53.14,24.78-6.65,4.26-12,9-15.21,14.91-7.61-7.23-17.91-10.78-28.51-10.61C63.57,398.12,88.84,386.14,107.86,375.38Zm239.3,235.84c-31.67,18.82-67.68,24.92-104.29,27.27-38.88,2.5-80.36,5.43-117.65-7.82,0-4.23-.09-8.47-.17-12.7A277.93,277.93,0,0,0,345.8,605.9C346.26,607.67,346.68,609.45,347.16,611.22Zm13.89,45.24a436.52,436.52,0,0,1-124.18,24.91,413.64,413.64,0,0,0,124.56-23.74c5.19,15.4,10.69,30.69,16.23,45.92-83,15.62-166.19,14.56-249.23.29.6-10.37-.12-21.12-1-31.8l5.93,1.15-5.94-1.31c-.73-8.76-1.56-17.48-1.86-25.88-.18-5-.26-9.95-.32-15C164,645.87,207.41,642.46,248,639.51c34.68-2.51,69.81-8.52,99.38-27.32C351.49,627.07,356.13,641.81,361.05,656.45ZM103.34,537.52c3.7-4.46,7.58-9.08,11.2-13.88-3.1,5.34-7.3,10.86-10,15Zm50-152.4q-.64,1.57-1.26,3.16a69.55,69.55,0,0,1-6.3-26.26A31.72,31.72,0,0,1,153.31,385.12Zm-28.52,102.3a78.21,78.21,0,0,0-2.39,16c-13.34-16.54-30.81-36.84-33.9-56.35-4.4-27.7,37.89-42.35,60.3-50.3q-7.2,19.43-12.54,39.53C132.16,451.8,126.95,469.93,124.79,487.43Zm-16.16,56.9c7.08-9.39,13.21-19.52,19.58-29.4a3.5,3.5,0,0,0,.18-.42q1.31,1.65,2.73,3.18a.55.55,0,0,0-.56.31c-6.15,11.43-13,21.69-22.37,30.67-.21-.8-.32-1.68-.49-2.52A4,4,0,0,0,108.63,544.32Zm20.87,30.07c-10.12-6.61-17.9-13.86-21.1-25.08,9.51-8.55,18.1-18.91,23.34-30.64a.64.64,0,0,0,0-.33c1.75,1.86,3.58,3.69,5.43,5.66,9.53,10.16,11.08,20.84,8.3,34.29-2.2,10.67-4.61,20.31-16.55,23.59-8.09,2.23-12.62-4.64-15.4-11.9a21.5,21.5,0,0,0,15.53,6A.84.84,0,0,0,129.51,574.4ZM80.46,431.75A100,100,0,0,0,59.64,420.8a41.55,41.55,0,0,1,21.43,9.49Q80.74,431,80.46,431.75Zm-1.31,4.54a224.2,224.2,0,0,0-25-2.55c8.11-3.16,16.93-1.23,25.19,1.52C79.26,435.6,79.21,436,79.14,436.29Zm-27-15.8a104.59,104.59,0,0,1,25.34,11.9c-9.36-2.81-19.18-4.1-28,1.27a1.07,1.07,0,0,0,.54,2,244.81,244.81,0,0,1,28.78,2.72s0,.05,0,.08A89.92,89.92,0,0,0,56.48,448a1,1,0,0,0,.52,1.91,36.39,36.39,0,0,0,8.6.31c.57-.08.45-.89,0-1a22.93,22.93,0,0,0-5.16-1,88.79,88.79,0,0,1,18.2-7.56,34.2,34.2,0,0,0,.14,4.86c1.66,16.59,13.1,30.83,22.5,43.86,3.36,4.66,16.25,16.88,17.12,22.27a8.72,8.72,0,0,1,0,2.39c-5.31,7.56-10.27,15.42-16,22.73C72.26,509.44,33.62,461.77,52.13,420.49ZM128,708.69c.14-1.33.28-2.66.37-4q7.57,1.57,15.18,2.95A52.3,52.3,0,0,0,128,708.69Zm64.7,23.66c.06,1.31.16,2.62.34,3.94a92.58,92.58,0,0,0-20.38-3.54,67.59,67.59,0,0,1,19.87-.39A.86.86,0,0,0,192.69,732.35Zm-27.09,2.37c9.42-.76,18.45,1,27.41,3.47a125.55,125.55,0,0,0-29,1.72A27,27,0,0,0,165.59,734.73Zm.37-2.43a24.05,24.05,0,0,0-.68-8.58,143.76,143.76,0,0,0,17.19,6.14A68.17,68.17,0,0,0,166,732.29ZM163.45,719q5.29,1,10.57,2c-3.23,0-6.45,0-9.68,0C164.08,720.25,163.77,719.61,163.45,719Zm31.38,48.67c-4.1.63-11,3.08-15,1.92s-2.44-2.32-3-7.2a13.9,13.9,0,0,0-1.58-5.75h0c1.17-3.51-4.22-5.77-6-2.52a16.46,16.46,0,0,1-3.51,4.56c-1.4,1.26-2.83,2-3.62,3.68-10.09,4-19.53,9-30.76,10.51-2.14.28-16.72,3.2-10.35-6.59.62-1,7.27-1.65,8.57-2a98,98,0,0,0,17.49-6.72,36.23,36.23,0,0,0,16.3-16.09,151.71,151.71,0,0,1,30.4-1.19c0,.2.06.39.11.58,1.72,7.38,6.88,15.54,7,23.13a2.69,2.69,0,0,0,1.21,2.51Q198.46,767.09,194.83,767.63Zm-2.16-37.28a139.63,139.63,0,0,1-23.17-7.21c4.37,0,8.7-.19,13.07-.62,2.35.42,4.7.83,7.06,1.21,1.18.19,2.37.31,3.55.49A39.7,39.7,0,0,0,192.67,730.35Zm125.16-2.6a12.15,12.15,0,0,0-.93,1.85c-.9-.08-1.82-.13-2.77-.14-9.35-.12-18.79.75-28.14,1.43q.08-.87.08-1.75C296.67,728.87,307.25,728.39,317.83,727.76Zm-32,4.22c5-.07,10.07-.13,15.11-.31,4-.14,10.91-1.73,15.54-.84a12.1,12.1,0,0,0-.37,4.35c-1.71.18-3.43.26-4.34.37q-4.79.57-9.59,1c-5.85.55-11.72.91-17.58,1.22A43.91,43.91,0,0,0,285.86,732Zm61.2,31.72c3.39,1.32,6.77,1.64,10.22,2.58q6.69-.87,1.44,1.6c0,.05,0,.11,0,.16-17.58,4.13-33.05-2.55-46.58-13.7a4.7,4.7,0,0,0-2.31-3.45l-.84-.43a4.35,4.35,0,0,0-6.47,3.71c0,2.61-.64,7.88-1.84,10.19l-.62,3.12q-2.83-.05-5.66,0l-9.59,0-5.66,0a9.18,9.18,0,0,0-.08-1c-1.93-4.88,2.79-17.73,4.06-23.06.31-1.27.66-2.53,1-3.78l12.13-.54a.4.4,0,0,0,.37-.3c6.6-.54,13.18-1.31,19.74-2.17,1.24,6.24,6.46,12.34,11.62,16.22A81.69,81.69,0,0,0,347.06,763.69Zm7.65-46.42c-11.17.93-22.34,1.79-33.52,2.5-23.32,1.47-46.69,2.27-70.06,1.66a463.24,463.24,0,0,1-70.95-7.15c-4.56-.83-9.54-2-14.7-3.12,70.55,10,142.92,7.35,212.82-5.85l1.68,4.63a4.86,4.86,0,0,0,1.8,2.39,6.47,6.47,0,0,0-2.95,3.38C370.92,714.9,362.81,716.6,354.71,717.28ZM339.82,482.53a164.43,164.43,0,0,0,6.54-17,139.72,139.72,0,0,1-2.71,19.76C342.38,484.41,341.1,483.48,339.82,482.53ZM388.67,506c-16.82-3.64-29.83-10.1-42.89-19.16,2.86-6.81,5.8-13.66,8-20.66.18-.57-.71-1-1-.42-2.76,5.61-5,11.51-7.29,17.39A141.6,141.6,0,0,0,348,459.91a.69.69,0,0,0-1.35-.18c-2.06,7.38-4.45,14.68-7.16,21.86.08-8.92.32-17.92.69-27,3-.23,5.91-.55,8.86-.94,14.68,11.94,34.55,19.17,52.22,24.34,13.95,4.08,32.19,9.09,48.48,9a50.47,50.47,0,0,0-3.41,14.48c-.26,3.51-.81,7.87,1.38,10.68C427.95,510.89,408.39,510.25,388.67,506Zm77.12-.78c.15-7.23-.22-19.46,4.59-26.24a87.4,87.4,0,0,0-2.31,36.66c.41,2.63.77,6.06,1.57,9.26C465.73,519.85,465.63,512.69,465.79,505.2Zm17,54.83c-.07-6.91-.11-13.85-.54-20.74l1.16.11a143.79,143.79,0,0,0,22.87,0,3.75,3.75,0,0,0-.21.68c-.33,3.09-.67,6.19-1,9.31a37,37,0,0,1-21.78-.35c-.67-.21-.93.81-.29,1a37.12,37.12,0,0,0,21.89,1.13v.08a114.85,114.85,0,0,1-20.14,9.45c-1.24.44-.7,2.43.55,2a118,118,0,0,0,19.37-9.11c-.56,5.9-1,11.82-1.11,17.71-2.28-.13-4.54-.28-6.71-.56-4.69-.6-9.37-1.28-14-2C483.26,566.09,482.86,563.17,482.82,560Zm-19.6,18.6c1.58,13.06,2.43,26.15,4,39.2-2.2,0-4.11-.13-5.6-.29a9.14,9.14,0,0,0-1.4-.76c2.57-11.84-1.93-26.3-4.56-38.9C458.16,578.17,460.69,578.37,463.22,578.63Zm-.12,60.81,3,.42c-10.22,43.1-22.08,87-29.41,130.67-2.93.21-5.86.38-8.8.6C439.83,727.3,452.28,683.55,463.1,639.44Zm31.78,127.84c-1.86-41.37-3.43-82.75-5.5-124.11a137.82,137.82,0,0,0,16.9,1,37.53,37.53,0,0,0,9.69-1.45,817.17,817.17,0,0,0,36,123.27Q523.38,766.15,494.88,767.28Z"/><path class="cls-1" d="M477.83,210.77a79.08,79.08,0,0,0,19.94,1c.49,0,.51-.8,0-.78A104.27,104.27,0,0,1,478,210.2C477.62,210.15,477.45,210.71,477.83,210.77Z"/><path class="cls-1" d="M287.6,174.7c-2.65,1.73-5.39,3.3-8.18,4.76,2.81-1.41,5.59-2.88,8.34-4.49C287.93,174.87,287.77,174.59,287.6,174.7Z"/><path class="cls-1" d="M263.54,186a96.67,96.67,0,0,0,15.88-6.59A118.85,118.85,0,0,1,263.54,186Z"/><path class="cls-1" d="M127.87,590.53c-.45-.22-.85.45-.4.68,30.41,15.14,65,12.61,98,12.44l61.42-.32c3.15,0,17.07-1,30.66-1.32l-79.8.48C201.43,602.7,161.4,607.21,127.87,590.53Z"/><path class="cls-1" d="M317.54,602l15.25-.09C328.2,601.79,322.9,601.85,317.54,602Z"/><path class="cls-1" d="M133.36,673.18a392.31,392.31,0,0,0,103.52,8.18A464.51,464.51,0,0,1,133.36,673.18Z"/></svg>